<svg width="960" height="540" viewBox="0 0 960 540" xmlns="http://www.w3.org/2000/svg">

  <defs>
    <filter id="glow" x="-30%" y="-30%" width="160%" height="160%">
      <feGaussianBlur in="SourceGraphic" stdDeviation="3.5" result="blur"/>
      <feMerge><feMergeNode in="blur"/><feMergeNode in="SourceGraphic"/></feMerge>
    </filter>
    <pattern id="grid" width="24" height="24" patternUnits="userSpaceOnUse">
      <path d="M 24 0 L 0 0 0 24" fill="none" stroke="rgba(6,182,212,0.04)" stroke-width="0.5"/>
    </pattern>
    <pattern id="scanlines" width="1" height="3" patternUnits="userSpaceOnUse">
      <rect width="1" height="1" fill="rgba(255,255,255,0.03)"/>
    </pattern>
  </defs>

  <!-- Background -->
  <rect width="960" height="540" fill="#030712"/>
  <rect width="960" height="540" fill="url(#grid)"/>

  <!-- Title section -->
  <rect x="30" y="18" width="280" height="20" fill="#06b6d4" fill-opacity="0.08" stroke="#06b6d4" stroke-width="0.5" shape-rendering="crispEdges"/>
  <text x="170" y="32" text-anchor="middle" font-family="'Courier New', monospace" font-size="9" fill="#06b6d4" letter-spacing="2">AI FOR BUSINESS INTELLIGENCE</text>

  <!-- ===== LAYER LABELS ===== -->
  <!-- User Layer -->
  <rect x="40" y="50" width="130" height="16" fill="#8b5cf6" fill-opacity="0.1" stroke="#8b5cf6" stroke-width="0.5" shape-rendering="crispEdges"/>
  <text x="105" y="61" text-anchor="middle" font-family="'Courier New', monospace" font-size="8" fill="#8b5cf6" letter-spacing="1.5">USER LAYER</text>

  <!-- AI Engine Layer -->
  <rect x="370" y="50" width="220" height="16" fill="#06b6d4" fill-opacity="0.1" stroke="#06b6d4" stroke-width="0.5" shape-rendering="crispEdges"/>
  <text x="480" y="61" text-anchor="middle" font-family="'Courier New', monospace" font-size="8" fill="#06b6d4" letter-spacing="1.5">AI ENGINE LAYER</text>

  <!-- Data Layer -->
  <rect x="760" y="50" width="160" height="16" fill="#4ade80" fill-opacity="0.1" stroke="#4ade80" stroke-width="0.5" shape-rendering="crispEdges"/>
  <text x="840" y="61" text-anchor="middle" font-family="'Courier New', monospace" font-size="8" fill="#4ade80" letter-spacing="1.5">DATA LAYER</text>


  <!-- ===== CARD 1: BUSINESS USER ===== -->
  <g transform="translate(40, 90)">
    <rect width="130" height="120" fill="#060c18" stroke="#8b5cf6" stroke-width="1" stroke-opacity="0.7" shape-rendering="crispEdges"/>
    <!-- Corners -->
    <rect x="0" y="0" width="4" height="4" fill="#8b5cf6" shape-rendering="crispEdges"/>
    <rect x="126" y="0" width="4" height="4" fill="#8b5cf6" shape-rendering="crispEdges"/>
    <rect x="0" y="116" width="4" height="4" fill="#8b5cf6" shape-rendering="crispEdges"/>
    <rect x="126" y="116" width="4" height="4" fill="#8b5cf6" shape-rendering="crispEdges"/>
    <!-- Person pixel art (8x8 → 32x32 at 48px canvas) centered ~x=49,y=12 -->
    <!-- Head row 0: 0,0,1,1,1,1,0,0 -->
    <rect x="53" y="14" width="4" height="4" fill="#8b5cf6" shape-rendering="crispEdges"/>
    <rect x="58" y="14" width="4" height="4" fill="#8b5cf6" shape-rendering="crispEdges"/>
    <rect x="63" y="14" width="4" height="4" fill="#8b5cf6" shape-rendering="crispEdges"/>
    <rect x="68" y="14" width="4" height="4" fill="#8b5cf6" shape-rendering="crispEdges"/>
    <!-- Head row 1: 0,1,1,1,1,1,1,0 -->
    <rect x="48" y="19" width="4" height="4" fill="#8b5cf6" shape-rendering="crispEdges"/>
    <rect x="53" y="19" width="4" height="4" fill="#8b5cf6" shape-rendering="crispEdges"/>
    <rect x="58" y="19" width="4" height="4" fill="#8b5cf6" shape-rendering="crispEdges"/>
    <rect x="63" y="19" width="4" height="4" fill="#8b5cf6" shape-rendering="crispEdges"/>
    <rect x="68" y="19" width="4" height="4" fill="#8b5cf6" shape-rendering="crispEdges"/>
    <rect x="73" y="19" width="4" height="4" fill="#8b5cf6" shape-rendering="crispEdges"/>
    <!-- Head row 2: eyes + head 1,0,1,1,1,1,0,1 -->
    <rect x="43" y="24" width="4" height="4" fill="#8b5cf6" shape-rendering="crispEdges"/>
    <rect x="53" y="24" width="4" height="4" fill="#f59e0b" shape-rendering="crispEdges"/>
    <rect x="63" y="24" width="4" height="4" fill="#8b5cf6" shape-rendering="crispEdges"/>
    <rect x="68" y="24" width="4" height="4" fill="#f59e0b" shape-rendering="crispEdges"/>
    <rect x="78" y="24" width="4" height="4" fill="#8b5cf6" shape-rendering="crispEdges"/>
    <!-- Body row 3: 0,1,1,1,1,1,1,0 -->
    <rect x="48" y="29" width="4" height="4" fill="#8b5cf6" shape-rendering="crispEdges"/>
    <rect x="53" y="29" width="4" height="4" fill="#8b5cf6" shape-rendering="crispEdges"/>
    <rect x="58" y="29" width="4" height="4" fill="#8b5cf6" shape-rendering="crispEdges"/>
    <rect x="63" y="29" width="4" height="4" fill="#8b5cf6" shape-rendering="crispEdges"/>
    <rect x="68" y="29" width="4" height="4" fill="#8b5cf6" shape-rendering="crispEdges"/>
    <rect x="73" y="29" width="4" height="4" fill="#8b5cf6" shape-rendering="crispEdges"/>
    <!-- Arms row 4: 1,1,1,1,1,1,1,1 -->
    <rect x="43" y="34" width="4" height="4" fill="#8b5cf6" shape-rendering="crispEdges"/>
    <rect x="48" y="34" width="4" height="4" fill="#8b5cf6" shape-rendering="crispEdges"/>
    <rect x="53" y="34" width="4" height="4" fill="#8b5cf6" shape-rendering="crispEdges"/>
    <rect x="58" y="34" width="4" height="4" fill="#8b5cf6" shape-rendering="crispEdges"/>
    <rect x="63" y="34" width="4" height="4" fill="#8b5cf6" shape-rendering="crispEdges"/>
    <rect x="68" y="34" width="4" height="4" fill="#8b5cf6" shape-rendering="crispEdges"/>
    <rect x="73" y="34" width="4" height="4" fill="#8b5cf6" shape-rendering="crispEdges"/>
    <rect x="78" y="34" width="4" height="4" fill="#8b5cf6" shape-rendering="crispEdges"/>
    <!-- Legs row 5: 0,1,0,0,0,0,1,0 -->
    <rect x="48" y="39" width="4" height="4" fill="#8b5cf6" shape-rendering="crispEdges"/>
    <rect x="73" y="39" width="4" height="4" fill="#8b5cf6" shape-rendering="crispEdges"/>
    <!-- Legs row 6-7 -->
    <rect x="48" y="44" width="4" height="4" fill="#8b5cf6" shape-rendering="crispEdges"/>
    <rect x="73" y="44" width="4" height="4" fill="#8b5cf6" shape-rendering="crispEdges"/>
    <rect x="43" y="49" width="4" height="4" fill="#8b5cf6" shape-rendering="crispEdges"/>
    <rect x="78" y="49" width="4" height="4" fill="#8b5cf6" shape-rendering="crispEdges"/>

    <text x="65" y="88" text-anchor="middle" font-family="'Courier New', monospace" font-size="9" fill="#94a3b8" letter-spacing="1">BUSINESS</text>
    <text x="65" y="100" text-anchor="middle" font-family="'Courier New', monospace" font-size="9" fill="#94a3b8" letter-spacing="1">USER</text>
    <!-- Status dot -->
    <circle cx="118" cy="10" r="3" fill="#4ade80">
      <animate attributeName="opacity" values="1;0.3;1" dur="2s" repeatCount="indefinite"/>
    </circle>

    <!-- Query bubble -->
    <rect x="-2" y="126" width="134" height="26" fill="#060c18" stroke="#8b5cf6" stroke-width="0.5" stroke-opacity="0.5" shape-rendering="crispEdges"/>
    <text x="65" y="137" text-anchor="middle" font-family="'Courier New', monospace" font-size="7" fill="#8b5cf6" letter-spacing="0.5">"Show revenue by</text>
    <text x="65" y="147" text-anchor="middle" font-family="'Courier New', monospace" font-size="7" fill="#f59e0b" letter-spacing="0.5">region last quarter"</text>
  </g>

  <!-- ===== ARROW: User → NLP ===== -->
  <path d="M 172,150 C 240,150 270,150 320,150" fill="none" stroke="#8b5cf6" stroke-width="1.5" stroke-opacity="0.5" stroke-dasharray="4 3" shape-rendering="crispEdges">
    <animate attributeName="stroke-dashoffset" values="0;-14" dur="1.2s" repeatCount="indefinite"/>
  </path>
  <!-- arrow head -->
  <polygon points="320,146 330,150 320,154" fill="#8b5cf6" opacity="0.7"/>
  <!-- flow dot -->
  <circle r="3" fill="#8b5cf6" filter="url(#glow)">
    <animateMotion path="M 172,150 C 240,150 270,150 326,150" dur="1.5s" repeatCount="indefinite" calcMode="spline" keySplines="0.4 0 0.6 1"/>
  </circle>


  <!-- ===== CARD 2: NLP UNDERSTANDING ===== -->
  <g transform="translate(330, 90)">
    <rect width="140" height="120" fill="#060c18" stroke="#8b5cf6" stroke-width="1" stroke-opacity="0.6" shape-rendering="crispEdges"/>
    <rect x="0" y="0" width="4" height="4" fill="#8b5cf6" shape-rendering="crispEdges"/>
    <rect x="136" y="0" width="4" height="4" fill="#8b5cf6" shape-rendering="crispEdges"/>
    <rect x="0" y="116" width="4" height="4" fill="#8b5cf6" shape-rendering="crispEdges"/>
    <rect x="136" y="116" width="4" height="4" fill="#8b5cf6" shape-rendering="crispEdges"/>
    <!-- Brain/LLM pixel icon 8x8 centered at x=54,y=12 cell=4 gap=1 -->
    <!-- 0,1,1,0,0,1,1,0 row0 -->
    <rect x="54" y="12" width="4" height="4" fill="#8b5cf6" shape-rendering="crispEdges"/>
    <rect x="59" y="12" width="4" height="4" fill="#8b5cf6" shape-rendering="crispEdges"/>
    <rect x="74" y="12" width="4" height="4" fill="#8b5cf6" shape-rendering="crispEdges"/>
    <rect x="79" y="12" width="4" height="4" fill="#8b5cf6" shape-rendering="crispEdges"/>
    <!-- 1,1,1,1,1,1,1,1 row1 -->
    <rect x="49" y="17" width="4" height="4" fill="#8b5cf6" shape-rendering="crispEdges"/>
    <rect x="54" y="17" width="4" height="4" fill="#8b5cf6" shape-rendering="crispEdges"/>
    <rect x="59" y="17" width="4" height="4" fill="#8b5cf6" shape-rendering="crispEdges"/>
    <rect x="64" y="17" width="4" height="4" fill="#8b5cf6" shape-rendering="crispEdges"/>
    <rect x="69" y="17" width="4" height="4" fill="#8b5cf6" shape-rendering="crispEdges"/>
    <rect x="74" y="17" width="4" height="4" fill="#8b5cf6" shape-rendering="crispEdges"/>
    <rect x="79" y="17" width="4" height="4" fill="#8b5cf6" shape-rendering="crispEdges"/>
    <rect x="84" y="17" width="4" height="4" fill="#8b5cf6" shape-rendering="crispEdges"/>
    <!-- 1,0,1,1,1,1,0,1 row2 -->
    <rect x="49" y="22" width="4" height="4" fill="#8b5cf6" shape-rendering="crispEdges"/>
    <rect x="59" y="22" width="4" height="4" fill="#8b5cf6" shape-rendering="crispEdges"/>
    <rect x="64" y="22" width="4" height="4" fill="#8b5cf6" shape-rendering="crispEdges"/>
    <rect x="69" y="22" width="4" height="4" fill="#8b5cf6" shape-rendering="crispEdges"/>
    <rect x="74" y="22" width="4" height="4" fill="#8b5cf6" shape-rendering="crispEdges"/>
    <rect x="84" y="22" width="4" height="4" fill="#8b5cf6" shape-rendering="crispEdges"/>
    <!-- 1,1,1,1,1,1,1,1 row3 -->
    <rect x="49" y="27" width="4" height="4" fill="#8b5cf6" shape-rendering="crispEdges"/>
    <rect x="54" y="27" width="4" height="4" fill="#8b5cf6" shape-rendering="crispEdges"/>
    <rect x="59" y="27" width="4" height="4" fill="#8b5cf6" shape-rendering="crispEdges"/>
    <rect x="64" y="27" width="4" height="4" fill="#8b5cf6" shape-rendering="crispEdges"/>
    <rect x="69" y="27" width="4" height="4" fill="#8b5cf6" shape-rendering="crispEdges"/>
    <rect x="74" y="27" width="4" height="4" fill="#8b5cf6" shape-rendering="crispEdges"/>
    <rect x="79" y="27" width="4" height="4" fill="#8b5cf6" shape-rendering="crispEdges"/>
    <rect x="84" y="27" width="4" height="4" fill="#8b5cf6" shape-rendering="crispEdges"/>
    <!-- 0,1,1,1,1,1,1,0 row4 -->
    <rect x="54" y="32" width="4" height="4" fill="#8b5cf6" shape-rendering="crispEdges"/>
    <rect x="59" y="32" width="4" height="4" fill="#8b5cf6" shape-rendering="crispEdges"/>
    <rect x="64" y="32" width="4" height="4" fill="#8b5cf6" shape-rendering="crispEdges"/>
    <rect x="69" y="32" width="4" height="4" fill="#8b5cf6" shape-rendering="crispEdges"/>
    <rect x="74" y="32" width="4" height="4" fill="#8b5cf6" shape-rendering="crispEdges"/>
    <rect x="79" y="32" width="4" height="4" fill="#8b5cf6" shape-rendering="crispEdges"/>
    <!-- 0,1,0,1,1,0,1,0 row5 -->
    <rect x="54" y="37" width="4" height="4" fill="#8b5cf6" shape-rendering="crispEdges"/>
    <rect x="64" y="37" width="4" height="4" fill="#8b5cf6" shape-rendering="crispEdges"/>
    <rect x="69" y="37" width="4" height="4" fill="#8b5cf6" shape-rendering="crispEdges"/>
    <rect x="79" y="37" width="4" height="4" fill="#8b5cf6" shape-rendering="crispEdges"/>
    <!-- 0,0,1,0,0,1,0,0 row6 -->
    <rect x="59" y="42" width="4" height="4" fill="#8b5cf6" shape-rendering="crispEdges"/>
    <rect x="74" y="42" width="4" height="4" fill="#8b5cf6" shape-rendering="crispEdges"/>
    <!-- 0,0,0,1,1,0,0,0 row7 -->
    <rect x="64" y="47" width="4" height="4" fill="#8b5cf6" shape-rendering="crispEdges"/>
    <rect x="69" y="47" width="4" height="4" fill="#8b5cf6" shape-rendering="crispEdges"/>

    <text x="70" y="82" text-anchor="middle" font-family="'Courier New', monospace" font-size="8" fill="#94a3b8" letter-spacing="0.5">NLP / LLM</text>
    <text x="70" y="94" text-anchor="middle" font-family="'Courier New', monospace" font-size="8" fill="#94a3b8" letter-spacing="0.5">UNDERSTANDING</text>
    <circle cx="128" cy="10" r="3" fill="#f59e0b">
      <animate attributeName="opacity" values="1;0;1" dur="1.1s" repeatCount="indefinite"/>
    </circle>

    <!-- Scanline sweep -->
    <rect x="2" y="0" width="136" height="2" fill="#8b5cf6" opacity="0.12" shape-rendering="crispEdges">
      <animate attributeName="y" values="-2;118;-2" dur="3s" repeatCount="indefinite"/>
    </rect>
  </g>


  <!-- ===== ARROW: NLP → SQL GEN ===== -->
  <path d="M 472,150 C 510,150 520,150 540,150" fill="none" stroke="#06b6d4" stroke-width="1.5" stroke-opacity="0.5" stroke-dasharray="4 3" shape-rendering="crispEdges">
    <animate attributeName="stroke-dashoffset" values="0;-14" dur="1.0s" repeatCount="indefinite"/>
  </path>
  <polygon points="540,146 550,150 540,154" fill="#06b6d4" opacity="0.7"/>
  <circle r="3" fill="#06b6d4" filter="url(#glow)">
    <animateMotion path="M 472,150 C 510,150 520,150 546,150" dur="1.3s" repeatCount="indefinite" calcMode="spline" keySplines="0.4 0 0.6 1"/>
  </circle>

  <!-- ===== CARD 3: OmniQuery SQL ENGINE ===== -->
  <g transform="translate(550, 90)">
    <rect width="150" height="120" fill="#060c18" stroke="#06b6d4" stroke-width="1.5" stroke-opacity="0.9" shape-rendering="crispEdges"/>
    <rect x="0" y="0" width="5" height="5" fill="#06b6d4" shape-rendering="crispEdges"/>
    <rect x="145" y="0" width="5" height="5" fill="#06b6d4" shape-rendering="crispEdges"/>
    <rect x="0" y="115" width="5" height="5" fill="#06b6d4" shape-rendering="crispEdges"/>
    <rect x="145" y="115" width="5" height="5" fill="#06b6d4" shape-rendering="crispEdges"/>

    <!-- OmniQuery Logo inner icon pasted here, scaled 0.75 -->
    <g transform="translate(51,8) scale(0.75)" filter="url(#glow)">
      <rect x="6.5"  y="0.5"  width="5" height="5" fill="#06b6d4" shape-rendering="crispEdges"/>
      <rect x="12.5" y="0.5"  width="5" height="5" fill="#06b6d4" shape-rendering="crispEdges"/>
      <rect x="18.5" y="0.5"  width="5" height="5" fill="#06b6d4" shape-rendering="crispEdges"/>
      <rect x="24.5" y="0.5"  width="5" height="5" fill="#06b6d4" shape-rendering="crispEdges"/>
      <rect x="30.5" y="0.5"  width="5" height="5" fill="#06b6d4" shape-rendering="crispEdges"/>
      <rect x="36.5" y="0.5"  width="5" height="5" fill="#06b6d4" shape-rendering="crispEdges"/>
      <rect x="0.5"  y="6.5"  width="5" height="5" fill="#06b6d4" shape-rendering="crispEdges"/>
      <rect x="42.5" y="6.5"  width="5" height="5" fill="#06b6d4" shape-rendering="crispEdges"/>
      <rect x="0.5"  y="12.5" width="5" height="5" fill="#06b6d4" shape-rendering="crispEdges"/>
      <rect x="42.5" y="12.5" width="5" height="5" fill="#06b6d4" shape-rendering="crispEdges"/>
      <rect x="0.5"  y="18.5" width="5" height="5" fill="#06b6d4" shape-rendering="crispEdges"/>
      <rect x="42.5" y="18.5" width="5" height="5" fill="#06b6d4" shape-rendering="crispEdges"/>
      <rect x="0.5"  y="24.5" width="5" height="5" fill="#06b6d4" shape-rendering="crispEdges"/>
      <rect x="12.5" y="24.5" width="5" height="5" fill="#8b5cf6" shape-rendering="crispEdges"/>
      <rect x="18.5" y="24.5" width="5" height="5" fill="#8b5cf6" shape-rendering="crispEdges"/>
      <rect x="24.5" y="24.5" width="5" height="5" fill="#8b5cf6" shape-rendering="crispEdges"/>
      <rect x="42.5" y="24.5" width="5" height="5" fill="#06b6d4" shape-rendering="crispEdges"/>
      <rect x="0.5"  y="30.5" width="5" height="5" fill="#06b6d4" shape-rendering="crispEdges"/>
      <rect x="12.5" y="30.5" width="5" height="5" fill="#8b5cf6" shape-rendering="crispEdges"/>
      <rect x="18.5" y="30.5" width="5" height="5" fill="#8b5cf6" shape-rendering="crispEdges"/>
      <rect x="42.5" y="30.5" width="5" height="5" fill="#06b6d4" shape-rendering="crispEdges"/>
      <rect x="0.5"  y="36.5" width="5" height="5" fill="#06b6d4" shape-rendering="crispEdges"/>
      <rect x="12.5" y="36.5" width="5" height="5" fill="#f59e0b" shape-rendering="crispEdges">
        <animate attributeName="opacity" dur="1.1s" values="1;0;1" repeatCount="indefinite"/>
      </rect>
      <rect x="42.5" y="36.5" width="5" height="5" fill="#06b6d4" shape-rendering="crispEdges"/>
      <rect x="6.5"  y="42.5" width="5" height="5" fill="#06b6d4" shape-rendering="crispEdges"/>
      <rect x="12.5" y="42.5" width="5" height="5" fill="#06b6d4" shape-rendering="crispEdges"/>
      <rect x="18.5" y="42.5" width="5" height="5" fill="#06b6d4" shape-rendering="crispEdges"/>
      <rect x="24.5" y="42.5" width="5" height="5" fill="#06b6d4" shape-rendering="crispEdges"/>
      <rect x="30.5" y="42.5" width="5" height="5" fill="#06b6d4" shape-rendering="crispEdges"/>
      <rect x="36.5" y="42.5" width="5" height="5" fill="#06b6d4" shape-rendering="crispEdges"/>
    </g>

    <text x="75" y="87" text-anchor="middle" font-family="'Courier New', monospace" font-size="8" fill="#06b6d4" letter-spacing="0.5">OMNIQUERY</text>
    <text x="75" y="99" text-anchor="middle" font-family="'Courier New', monospace" font-size="8" fill="#94a3b8" letter-spacing="0.5">SQL GENERATOR</text>
    <text x="75" y="111" text-anchor="middle" font-family="'Courier New', monospace" font-size="7" fill="#4ade80" letter-spacing="0.5">+ SELF-HEAL</text>
    <circle cx="140" cy="10" r="3" fill="#4ade80">
      <animate attributeName="opacity" values="1;0.3;1" dur="2s" repeatCount="indefinite"/>
    </circle>
  </g>


  <!-- ===== ARROW: SQL Engine → Data Sources ===== -->
  <path d="M 702,150 C 740,150 760,150 790,150" fill="none" stroke="#06b6d4" stroke-width="1.5" stroke-opacity="0.5" stroke-dasharray="4 3" shape-rendering="crispEdges">
    <animate attributeName="stroke-dashoffset" values="0;-14" dur="1.0s" repeatCount="indefinite"/>
  </path>
  <polygon points="790,146 800,150 790,154" fill="#06b6d4" opacity="0.7"/>
  <circle r="3" fill="#06b6d4" filter="url(#glow)">
    <animateMotion path="M 702,150 C 740,150 760,150 796,150" dur="1.3s" repeatCount="indefinite" calcMode="spline" keySplines="0.4 0 0.6 1"/>
  </circle>

  <!-- ===== DATA SOURCE CARDS (right column, stacked) ===== -->
  <!-- PostgreSQL -->
  <g transform="translate(800, 80)">
    <rect width="130" height="58" fill="#060c18" stroke="#60a5fa" stroke-width="1" stroke-opacity="0.6" shape-rendering="crispEdges"/>
    <rect x="0" y="0" width="4" height="4" fill="#60a5fa" shape-rendering="crispEdges"/>
    <rect x="126" y="0" width="4" height="4" fill="#60a5fa" shape-rendering="crispEdges"/>
    <rect x="0" y="54" width="4" height="4" fill="#60a5fa" shape-rendering="crispEdges"/>
    <rect x="126" y="54" width="4" height="4" fill="#60a5fa" shape-rendering="crispEdges"/>
    <!-- DB icon: 0,0,1,1,1,1,0,0 scaled 3px cell -->
    <rect x="50" y="10" width="3" height="3" fill="#60a5fa" shape-rendering="crispEdges"/>
    <rect x="54" y="10" width="3" height="3" fill="#60a5fa" shape-rendering="crispEdges"/>
    <rect x="58" y="10" width="3" height="3" fill="#60a5fa" shape-rendering="crispEdges"/>
    <rect x="62" y="10" width="3" height="3" fill="#60a5fa" shape-rendering="crispEdges"/>
    <rect x="46" y="14" width="3" height="3" fill="#60a5fa" shape-rendering="crispEdges"/>
    <rect x="50" y="14" width="3" height="3" fill="#60a5fa" shape-rendering="crispEdges"/>
    <rect x="66" y="14" width="3" height="3" fill="#60a5fa" shape-rendering="crispEdges"/>
    <rect x="70" y="14" width="3" height="3" fill="#60a5fa" shape-rendering="crispEdges"/>
    <rect x="46" y="18" width="28" height="3" fill="#60a5fa" shape-rendering="crispEdges"/>
    <rect x="46" y="22" width="28" height="3" fill="#60a5fa" shape-rendering="crispEdges"/>
    <rect x="46" y="26" width="3" height="3" fill="#60a5fa" shape-rendering="crispEdges"/>
    <rect x="70" y="26" width="3" height="3" fill="#60a5fa" shape-rendering="crispEdges"/>
    <rect x="50" y="30" width="3" height="3" fill="#60a5fa" shape-rendering="crispEdges"/>
    <rect x="54" y="30" width="3" height="3" fill="#60a5fa" shape-rendering="crispEdges"/>
    <rect x="58" y="30" width="3" height="3" fill="#60a5fa" shape-rendering="crispEdges"/>
    <rect x="62" y="30" width="3" height="3" fill="#60a5fa" shape-rendering="crispEdges"/>

    <text x="65" y="46" text-anchor="middle" font-family="'Courier New', monospace" font-size="8" fill="#94a3b8" letter-spacing="0.5">POSTGRESQL</text>
    <circle cx="120" cy="8" r="3" fill="#4ade80">
      <animate attributeName="opacity" values="1;0.3;1" dur="2.1s" repeatCount="indefinite"/>
    </circle>
  </g>

  <!-- MongoDB -->
  <g transform="translate(800, 153)">
    <rect width="130" height="58" fill="#060c18" stroke="#4ade80" stroke-width="1" stroke-opacity="0.6" shape-rendering="crispEdges"/>
    <rect x="0" y="0" width="4" height="4" fill="#4ade80" shape-rendering="crispEdges"/>
    <rect x="126" y="0" width="4" height="4" fill="#4ade80" shape-rendering="crispEdges"/>
    <rect x="0" y="54" width="4" height="4" fill="#4ade80" shape-rendering="crispEdges"/>
    <rect x="126" y="54" width="4" height="4" fill="#4ade80" shape-rendering="crispEdges"/>
    <!-- Leaf icon 3px cells -->
    <rect x="58" y="10" width="3" height="3" fill="#4ade80" shape-rendering="crispEdges"/>
    <rect x="62" y="10" width="3" height="3" fill="#4ade80" shape-rendering="crispEdges"/>
    <rect x="54" y="14" width="3" height="3" fill="#4ade80" shape-rendering="crispEdges"/>
    <rect x="58" y="14" width="3" height="3" fill="#4ade80" shape-rendering="crispEdges"/>
    <rect x="62" y="14" width="3" height="3" fill="#4ade80" shape-rendering="crispEdges"/>
    <rect x="66" y="14" width="3" height="3" fill="#4ade80" shape-rendering="crispEdges"/>
    <rect x="54" y="18" width="16" height="3" fill="#4ade80" shape-rendering="crispEdges"/>
    <rect x="54" y="22" width="16" height="3" fill="#4ade80" shape-rendering="crispEdges"/>
    <rect x="58" y="26" width="8" height="3" fill="#4ade80" shape-rendering="crispEdges"/>
    <rect x="58" y="30" width="8" height="3" fill="#4ade80" shape-rendering="crispEdges"/>

    <text x="65" y="46" text-anchor="middle" font-family="'Courier New', monospace" font-size="8" fill="#94a3b8" letter-spacing="0.5">MONGODB</text>
    <circle cx="120" cy="8" r="3" fill="#4ade80">
      <animate attributeName="opacity" values="1;0.3;1" dur="1.8s" repeatCount="indefinite"/>
    </circle>
  </g>

  <!-- Snowflake -->
  <g transform="translate(800, 226)">
    <rect width="130" height="58" fill="#060c18" stroke="#38bdf8" stroke-width="1" stroke-opacity="0.6" shape-rendering="crispEdges"/>
    <rect x="0" y="0" width="4" height="4" fill="#38bdf8" shape-rendering="crispEdges"/>
    <rect x="126" y="0" width="4" height="4" fill="#38bdf8" shape-rendering="crispEdges"/>
    <rect x="0" y="54" width="4" height="4" fill="#38bdf8" shape-rendering="crispEdges"/>
    <rect x="126" y="54" width="4" height="4" fill="#38bdf8" shape-rendering="crispEdges"/>
    <!-- Snowflake icon simplified -->
    <rect x="62" y="10" width="3" height="22" fill="#38bdf8" shape-rendering="crispEdges"/>
    <rect x="54" y="18" width="20" height="3" fill="#38bdf8" shape-rendering="crispEdges"/>
    <rect x="56" y="12" width="3" height="3" fill="#38bdf8" shape-rendering="crispEdges"/>
    <rect x="68" y="12" width="3" height="3" fill="#38bdf8" shape-rendering="crispEdges"/>
    <rect x="56" y="27" width="3" height="3" fill="#38bdf8" shape-rendering="crispEdges"/>
    <rect x="68" y="27" width="3" height="3" fill="#38bdf8" shape-rendering="crispEdges"/>

    <text x="65" y="46" text-anchor="middle" font-family="'Courier New', monospace" font-size="8" fill="#94a3b8" letter-spacing="0.5">SNOWFLAKE</text>
    <circle cx="120" cy="8" r="3" fill="#4ade80">
      <animate attributeName="opacity" values="1;0.3;1" dur="2.3s" repeatCount="indefinite"/>
    </circle>
  </g>


  <!-- ===== BOTTOM ROW: RESULT & INSIGHT ===== -->

  <!-- Generated SQL Box -->
  <g transform="translate(40, 310)">
    <rect width="330" height="105" fill="#060c18" stroke="#06b6d4" stroke-width="1" stroke-opacity="0.5" shape-rendering="crispEdges"/>
    <rect x="0" y="0" width="4" height="4" fill="#06b6d4" shape-rendering="crispEdges"/>
    <rect x="326" y="0" width="4" height="4" fill="#06b6d4" shape-rendering="crispEdges"/>
    <rect x="0" y="101" width="4" height="4" fill="#06b6d4" shape-rendering="crispEdges"/>
    <rect x="326" y="101" width="4" height="4" fill="#06b6d4" shape-rendering="crispEdges"/>
    <rect x="0" y="0" width="330" height="16" fill="#06b6d4" fill-opacity="0.1" shape-rendering="crispEdges"/>
    <text x="10" y="11" font-family="'Courier New', monospace" font-size="8" fill="#06b6d4" letter-spacing="1">GENERATED SQL</text>
    <!-- Blinking cursor -->
    <rect x="120" y="5" width="4" height="6" fill="#f59e0b" shape-rendering="crispEdges">
      <animate attributeName="opacity" values="1;0;1" dur="1s" repeatCount="indefinite"/>
    </rect>
    <text x="10" y="33" font-family="'Courier New', monospace" font-size="8" fill="#8b5cf6">SELECT</text>
    <text x="55" y="33" font-family="'Courier New', monospace" font-size="8" fill="#94a3b8"> region, SUM(revenue) AS total</text>
    <text x="10" y="46" font-family="'Courier New', monospace" font-size="8" fill="#8b5cf6">FROM</text>
    <text x="42" y="46" font-family="'Courier New', monospace" font-size="8" fill="#94a3b8"> sales</text>
    <text x="10" y="59" font-family="'Courier New', monospace" font-size="8" fill="#8b5cf6">WHERE</text>
    <text x="50" y="59" font-family="'Courier New', monospace" font-size="8" fill="#94a3b8"> quarter = </text>
    <text x="112" y="59" font-family="'Courier New', monospace" font-size="8" fill="#4ade80">'Q4'</text>
    <text x="136" y="59" font-family="'Courier New', monospace" font-size="8" fill="#8b5cf6"> AND</text>
    <text x="162" y="59" font-family="'Courier New', monospace" font-size="8" fill="#94a3b8"> year = 2025</text>
    <text x="10" y="72" font-family="'Courier New', monospace" font-size="8" fill="#8b5cf6">GROUP BY</text>
    <text x="66" y="72" font-family="'Courier New', monospace" font-size="8" fill="#94a3b8"> region</text>
    <text x="10" y="85" font-family="'Courier New', monospace" font-size="8" fill="#8b5cf6">ORDER BY</text>
    <text x="66" y="85" font-family="'Courier New', monospace" font-size="8" fill="#94a3b8"> total </text>
    <text x="106" y="85" font-family="'Courier New', monospace" font-size="8" fill="#8b5cf6">DESC</text>
    <text x="130" y="85" font-family="'Courier New', monospace" font-size="8" fill="#f59e0b">;</text>
  </g>

  <!-- Arrow: SQL box → Insight -->
  <path d="M 372,362 C 430,362 450,362 480,362" fill="none" stroke="#06b6d4" stroke-width="1.5" stroke-opacity="0.5" stroke-dasharray="4 3" shape-rendering="crispEdges">
    <animate attributeName="stroke-dashoffset" values="0;-14" dur="1s" repeatCount="indefinite"/>
  </path>
  <polygon points="480,358 490,362 480,366" fill="#06b6d4" opacity="0.7"/>
  <circle r="3" fill="#06b6d4" filter="url(#glow)">
    <animateMotion path="M 372,362 C 430,362 450,362 486,362" dur="1.3s" repeatCount="indefinite" calcMode="spline" keySplines="0.4 0 0.6 1"/>
  </circle>

  <!-- Insight / Result Table -->
  <g transform="translate(490, 310)">
    <rect width="430" height="190" fill="#060c18" stroke="#4ade80" stroke-width="1" stroke-opacity="0.6" shape-rendering="crispEdges"/>
    <rect x="0" y="0" width="5" height="5" fill="#4ade80" shape-rendering="crispEdges"/>
    <rect x="425" y="0" width="5" height="5" fill="#4ade80" shape-rendering="crispEdges"/>
    <rect x="0" y="185" width="5" height="5" fill="#4ade80" shape-rendering="crispEdges"/>
    <rect x="425" y="185" width="5" height="5" fill="#4ade80" shape-rendering="crispEdges"/>
    <rect x="0" y="0" width="430" height="18" fill="#4ade80" fill-opacity="0.1" shape-rendering="crispEdges"/>
    <text x="10" y="12" font-family="'Courier New', monospace" font-size="8" fill="#4ade80" letter-spacing="1">INSTANT INSIGHT — QUERY RESULT</text>
    <circle cx="415" cy="9" r="3" fill="#4ade80">
      <animate attributeName="opacity" values="1;0.3;1" dur="2s" repeatCount="indefinite"/>
    </circle>

    <!-- Table header -->
    <rect x="10" y="26" width="410" height="16" fill="#06b6d4" fill-opacity="0.12" shape-rendering="crispEdges"/>
    <text x="20" y="37" font-family="'Courier New', monospace" font-size="8" fill="#06b6d4" letter-spacing="1">REGION</text>
    <text x="160" y="37" font-family="'Courier New', monospace" font-size="8" fill="#06b6d4" letter-spacing="1">TOTAL_REVENUE</text>
    <text x="320" y="37" font-family="'Courier New', monospace" font-size="8" fill="#06b6d4" letter-spacing="1">GROWTH</text>

    <!-- Table rows -->
    <text x="20" y="57" font-family="'Courier New', monospace" font-size="8" fill="#94a3b8">North America</text>
    <text x="160" y="57" font-family="'Courier New', monospace" font-size="8" fill="#4ade80">$4,820,100</text>
    <text x="320" y="57" font-family="'Courier New', monospace" font-size="8" fill="#4ade80">↑ 18.4%</text>

    <text x="20" y="72" font-family="'Courier New', monospace" font-size="8" fill="#94a3b8">Europe</text>
    <text x="160" y="72" font-family="'Courier New', monospace" font-size="8" fill="#4ade80">$3,144,780</text>
    <text x="320" y="72" font-family="'Courier New', monospace" font-size="8" fill="#4ade80">↑ 12.1%</text>

    <text x="20" y="87" font-family="'Courier New', monospace" font-size="8" fill="#94a3b8">Asia Pacific</text>
    <text x="160" y="87" font-family="'Courier New', monospace" font-size="8" fill="#4ade80">$2,890,440</text>
    <text x="320" y="87" font-family="'Courier New', monospace" font-size="8" fill="#f59e0b">↑ 31.7%</text>

    <text x="20" y="102" font-family="'Courier New', monospace" font-size="8" fill="#94a3b8">Latin America</text>
    <text x="160" y="102" font-family="'Courier New', monospace" font-size="8" fill="#4ade80">$1,230,600</text>
    <text x="320" y="102" font-family="'Courier New', monospace" font-size="8" fill="#4ade80">↑ 9.3%</text>

    <text x="20" y="117" font-family="'Courier New', monospace" font-size="8" fill="#94a3b8">Middle East</text>
    <text x="160" y="117" font-family="'Courier New', monospace" font-size="8" fill="#4ade80">$890,220</text>
    <text x="320" y="117" font-family="'Courier New', monospace" font-size="8" fill="#94a3b8">→ 2.1%</text>

    <!-- divider line -->
    <rect x="10" y="126" width="410" height="1" fill="#06b6d4" fill-opacity="0.2" shape-rendering="crispEdges"/>

    <text x="10" y="143" font-family="'Courier New', monospace" font-size="7" fill="#8b5cf6">⚡ Generated in 340ms  •  Self-healed: 0 retries  •  Confidence: 99%</text>

    <!-- Mini bar chart pixels -->
    <rect x="10" y="155" width="40" height="8" fill="#06b6d4" fill-opacity="0.6" shape-rendering="crispEdges"/>
    <rect x="52" y="160" width="32" height="3" fill="#06b6d4" fill-opacity="0.5" shape-rendering="crispEdges"/>
    <rect x="86" y="158" width="28" height="5" fill="#f59e0b" fill-opacity="0.7" shape-rendering="crispEdges"/>
    <rect x="116" y="162" width="16" height="1" fill="#06b6d4" fill-opacity="0.4" shape-rendering="crispEdges"/>
    <rect x="134" y="163" width="12" height="1" fill="#06b6d4" fill-opacity="0.3" shape-rendering="crispEdges"/>
    <rect x="10" y="164" width="400" height="1" fill="#06b6d4" fill-opacity="0.15" shape-rendering="crispEdges"/>
    <text x="10" y="178" font-family="'Courier New', monospace" font-size="7" fill="#4ade80">▊▊▊▊▊▊▊▊ NA</text>
    <text x="120" y="178" font-family="'Courier New', monospace" font-size="7" fill="#4ade80">▊▊▊▊▊ EU</text>
    <text x="200" y="178" font-family="'Courier New', monospace" font-size="7" fill="#f59e0b">▊▊▊▊▊▊ APAC ↑↑</text>
  </g>

  <!-- ===== VERTICAL CONNECTOR arrows (data sources → result bottom) ===== -->
  <!-- From card 3 (SQL Gen center y=150) down to SQL box -->
  <path d="M 625,212 C 625,260 300,280 250,310" fill="none" stroke="#06b6d4" stroke-width="1" stroke-opacity="0.25" stroke-dasharray="3 4" shape-rendering="crispEdges">
    <animate attributeName="stroke-dashoffset" values="0;-21" dur="2s" repeatCount="indefinite"/>
  </path>


  <!-- ===== WATERMARK ===== -->
  <g transform="translate(764, 492)" opacity="0.55">
    <rect width="36" height="36" fill="#060c18" shape-rendering="crispEdges"/>
    <rect width="36" height="36" fill="none" stroke="#06b6d4" stroke-width="0.75" stroke-opacity="0.40" shape-rendering="crispEdges"/>
    <g transform="scale(0.75)" filter="url(#glow)">
      <rect x="6.5"  y="0.5"  width="5" height="5" fill="#06b6d4" shape-rendering="crispEdges"/>
      <rect x="12.5" y="0.5"  width="5" height="5" fill="#06b6d4" shape-rendering="crispEdges"/>
      <rect x="18.5" y="0.5"  width="5" height="5" fill="#06b6d4" shape-rendering="crispEdges"/>
      <rect x="24.5" y="0.5"  width="5" height="5" fill="#06b6d4" shape-rendering="crispEdges"/>
      <rect x="30.5" y="0.5"  width="5" height="5" fill="#06b6d4" shape-rendering="crispEdges"/>
      <rect x="36.5" y="0.5"  width="5" height="5" fill="#06b6d4" shape-rendering="crispEdges"/>
      <rect x="0.5"  y="6.5"  width="5" height="5" fill="#06b6d4" shape-rendering="crispEdges"/>
      <rect x="42.5" y="6.5"  width="5" height="5" fill="#06b6d4" shape-rendering="crispEdges"/>
      <rect x="0.5"  y="12.5" width="5" height="5" fill="#06b6d4" shape-rendering="crispEdges"/>
      <rect x="42.5" y="12.5" width="5" height="5" fill="#06b6d4" shape-rendering="crispEdges"/>
      <rect x="0.5"  y="18.5" width="5" height="5" fill="#06b6d4" shape-rendering="crispEdges"/>
      <rect x="42.5" y="18.5" width="5" height="5" fill="#06b6d4" shape-rendering="crispEdges"/>
      <rect x="0.5"  y="24.5" width="5" height="5" fill="#06b6d4" shape-rendering="crispEdges"/>
      <rect x="12.5" y="24.5" width="5" height="5" fill="#8b5cf6" shape-rendering="crispEdges"/>
      <rect x="18.5" y="24.5" width="5" height="5" fill="#8b5cf6" shape-rendering="crispEdges"/>
      <rect x="24.5" y="24.5" width="5" height="5" fill="#8b5cf6" shape-rendering="crispEdges"/>
      <rect x="42.5" y="24.5" width="5" height="5" fill="#06b6d4" shape-rendering="crispEdges"/>
      <rect x="0.5"  y="30.5" width="5" height="5" fill="#06b6d4" shape-rendering="crispEdges"/>
      <rect x="12.5" y="30.5" width="5" height="5" fill="#8b5cf6" shape-rendering="crispEdges"/>
      <rect x="18.5" y="30.5" width="5" height="5" fill="#8b5cf6" shape-rendering="crispEdges"/>
      <rect x="42.5" y="30.5" width="5" height="5" fill="#06b6d4" shape-rendering="crispEdges"/>
      <rect x="0.5"  y="36.5" width="5" height="5" fill="#06b6d4" shape-rendering="crispEdges"/>
      <rect x="12.5" y="36.5" width="5" height="5" fill="#f59e0b" shape-rendering="crispEdges">
        <animate attributeName="opacity" dur="1.1s" values="1;0;1" repeatCount="indefinite"/>
      </rect>
      <rect x="42.5" y="36.5" width="5" height="5" fill="#06b6d4" shape-rendering="crispEdges"/>
      <rect x="6.5"  y="42.5" width="5" height="5" fill="#06b6d4" shape-rendering="crispEdges"/>
      <rect x="12.5" y="42.5" width="5" height="5" fill="#06b6d4" shape-rendering="crispEdges"/>
      <rect x="18.5" y="42.5" width="5" height="5" fill="#06b6d4" shape-rendering="crispEdges"/>
      <rect x="24.5" y="42.5" width="5" height="5" fill="#06b6d4" shape-rendering="crispEdges"/>
      <rect x="30.5" y="42.5" width="5" height="5" fill="#06b6d4" shape-rendering="crispEdges"/>
      <rect x="36.5" y="42.5" width="5" height="5" fill="#06b6d4" shape-rendering="crispEdges"/>
    </g>
    <text x="42" y="24" font-family="'Courier New', Courier, monospace" font-size="14" font-weight="700" letter-spacing="-0.2" fill="white">OmniQuery<tspan fill="#06b6d4">.ai</tspan></text>
  </g>

</svg>
