<svg width="1200" height="627" viewBox="0 0 1200 627" xmlns="http://www.w3.org/2000/svg">

  <defs>
    <filter id="glow" x="-30%" y="-30%" width="160%" height="160%">
      <feGaussianBlur in="SourceGraphic" stdDeviation="4" result="blur"/>
      <feMerge><feMergeNode in="blur"/><feMergeNode in="SourceGraphic"/></feMerge>
    </filter>
    <filter id="glowStrong" x="-40%" y="-40%" width="180%" height="180%">
      <feGaussianBlur in="SourceGraphic" stdDeviation="7" result="blur"/>
      <feMerge><feMergeNode in="blur"/><feMergeNode in="SourceGraphic"/></feMerge>
    </filter>
    <pattern id="grid" width="28" height="28" patternUnits="userSpaceOnUse">
      <path d="M 28 0 L 0 0 0 28" fill="none" stroke="rgba(6,182,212,0.045)" stroke-width="0.5"/>
    </pattern>
    <!-- Diagonal stripe accent -->
    <pattern id="stripe" width="8" height="8" patternUnits="userSpaceOnUse" patternTransform="rotate(45)">
      <rect width="2" height="8" fill="rgba(6,182,212,0.06)"/>
    </pattern>
  </defs>

  <!-- ── Background ── -->
  <rect width="1200" height="627" fill="#030712"/>
  <rect width="1200" height="627" fill="url(#grid)"/>

  <!-- Subtle diagonal stripe zone (top-right quadrant accent) -->
  <rect x="700" y="0" width="500" height="320" fill="url(#stripe)" opacity="0.4"/>

  <!-- Bottom edge accent bar -->
  <rect x="0" y="612" width="1200" height="15" fill="#06b6d4" fill-opacity="0.07" shape-rendering="crispEdges"/>
  <rect x="0" y="612" width="1200" height="1" fill="#06b6d4" fill-opacity="0.25" shape-rendering="crispEdges"/>

  <!-- Top edge accent bar -->
  <rect x="0" y="0" width="1200" height="1" fill="#06b6d4" fill-opacity="0.35" shape-rendering="crispEdges"/>

  <!-- Left accent column (pixel border) -->
  <rect x="0" y="0" width="5" height="627" fill="#06b6d4" fill-opacity="0.12" shape-rendering="crispEdges"/>
  <rect x="0" y="0" width="1" height="627" fill="#06b6d4" fill-opacity="0.4" shape-rendering="crispEdges"/>

  <!-- Right accent column -->
  <rect x="1194" y="0" width="5" height="627" fill="#06b6d4" fill-opacity="0.12" shape-rendering="crispEdges"/>
  <rect x="1199" y="0" width="1" height="627" fill="#06b6d4" fill-opacity="0.4" shape-rendering="crispEdges"/>

  <!-- ── OmniQuery Logo Mark (top-left) ── -->
  <g transform="translate(36, 28)" filter="url(#glow)">
    <!-- Pixel logo 48×48 -->
    <rect width="48" height="48" fill="#060c18" shape-rendering="crispEdges"/>
    <rect width="48" height="48" fill="none" stroke="#06b6d4" stroke-width="1" stroke-opacity="0.5" shape-rendering="crispEdges"/>
    <g transform="scale(0.75)">
      <rect x="6.5"  y="0.5"  width="5" height="5" fill="#06b6d4" shape-rendering="crispEdges"/>
      <rect x="12.5" y="0.5"  width="5" height="5" fill="#06b6d4" shape-rendering="crispEdges"/>
      <rect x="18.5" y="0.5"  width="5" height="5" fill="#06b6d4" shape-rendering="crispEdges"/>
      <rect x="24.5" y="0.5"  width="5" height="5" fill="#06b6d4" shape-rendering="crispEdges"/>
      <rect x="30.5" y="0.5"  width="5" height="5" fill="#06b6d4" shape-rendering="crispEdges"/>
      <rect x="36.5" y="0.5"  width="5" height="5" fill="#06b6d4" shape-rendering="crispEdges"/>
      <rect x="0.5"  y="6.5"  width="5" height="5" fill="#06b6d4" shape-rendering="crispEdges"/>
      <rect x="42.5" y="6.5"  width="5" height="5" fill="#06b6d4" shape-rendering="crispEdges"/>
      <rect x="0.5"  y="12.5" width="5" height="5" fill="#06b6d4" shape-rendering="crispEdges"/>
      <rect x="12.5" y="12.5" width="5" height="5" fill="#06b6d4" shape-rendering="crispEdges"/>
      <rect x="18.5" y="12.5" width="5" height="5" fill="#06b6d4" shape-rendering="crispEdges"/>
      <rect x="24.5" y="12.5" width="5" height="5" fill="#06b6d4" shape-rendering="crispEdges"/>
      <rect x="30.5" y="12.5" width="5" height="5" fill="#06b6d4" shape-rendering="crispEdges"/>
      <rect x="42.5" y="12.5" width="5" height="5" fill="#06b6d4" shape-rendering="crispEdges"/>
      <rect x="0.5"  y="18.5" width="5" height="5" fill="#06b6d4" shape-rendering="crispEdges"/>
      <rect x="42.5" y="18.5" width="5" height="5" fill="#06b6d4" shape-rendering="crispEdges"/>
      <rect x="0.5"  y="24.5" width="5" height="5" fill="#06b6d4" shape-rendering="crispEdges"/>
      <rect x="12.5" y="24.5" width="5" height="5" fill="#8b5cf6" shape-rendering="crispEdges"/>
      <rect x="18.5" y="24.5" width="5" height="5" fill="#8b5cf6" shape-rendering="crispEdges"/>
      <rect x="24.5" y="24.5" width="5" height="5" fill="#8b5cf6" shape-rendering="crispEdges"/>
      <rect x="42.5" y="24.5" width="5" height="5" fill="#06b6d4" shape-rendering="crispEdges"/>
      <rect x="0.5"  y="30.5" width="5" height="5" fill="#06b6d4" shape-rendering="crispEdges"/>
      <rect x="12.5" y="30.5" width="5" height="5" fill="#8b5cf6" shape-rendering="crispEdges"/>
      <rect x="18.5" y="30.5" width="5" height="5" fill="#8b5cf6" shape-rendering="crispEdges"/>
      <rect x="42.5" y="30.5" width="5" height="5" fill="#06b6d4" shape-rendering="crispEdges"/>
      <rect x="0.5"  y="36.5" width="5" height="5" fill="#06b6d4" shape-rendering="crispEdges"/>
      <rect x="12.5" y="36.5" width="5" height="5" fill="#f59e0b" shape-rendering="crispEdges">
        <animate attributeName="opacity" dur="1.1s" values="1;0;1" repeatCount="indefinite"/>
      </rect>
      <rect x="42.5" y="36.5" width="5" height="5" fill="#06b6d4" shape-rendering="crispEdges"/>
      <rect x="6.5"  y="42.5" width="5" height="5" fill="#06b6d4" shape-rendering="crispEdges"/>
      <rect x="12.5" y="42.5" width="5" height="5" fill="#06b6d4" shape-rendering="crispEdges"/>
      <rect x="18.5" y="42.5" width="5" height="5" fill="#06b6d4" shape-rendering="crispEdges"/>
      <rect x="24.5" y="42.5" width="5" height="5" fill="#06b6d4" shape-rendering="crispEdges"/>
      <rect x="30.5" y="42.5" width="5" height="5" fill="#06b6d4" shape-rendering="crispEdges"/>
      <rect x="36.5" y="42.5" width="5" height="5" fill="#06b6d4" shape-rendering="crispEdges"/>
    </g>
  </g>
  <!-- Wordmark beside logo -->
  <text x="94" y="58" font-family="'Courier New', Courier, monospace" font-size="26" font-weight="700" letter-spacing="-0.5" fill="white" filter="url(#glow)">OmniQuery<tspan fill="#06b6d4">.ai</tspan></text>

  <!-- Status badge -->
  <rect x="94" y="68" width="120" height="14" fill="#4ade80" fill-opacity="0.1" stroke="#4ade80" stroke-width="0.5" shape-rendering="crispEdges"/>
  <circle cx="103" cy="75" r="3" fill="#4ade80">
    <animate attributeName="opacity" values="1;0.3;1" dur="1.8s" repeatCount="indefinite"/>
  </circle>
  <text x="110" y="79" font-family="'Courier New', monospace" font-size="7" fill="#4ade80" letter-spacing="1.5">NOW IN BETA</text>

  <!-- ── HEADLINE ── -->
  <text x="36" y="168" font-family="'Courier New', Courier, monospace" font-size="52" font-weight="700" fill="white" letter-spacing="-1" filter="url(#glowStrong)">Ask Your Data</text>
  <text x="36" y="230" font-family="'Courier New', Courier, monospace" font-size="52" font-weight="700" fill="#06b6d4" letter-spacing="-1" filter="url(#glowStrong)">Anything.</text>

  <!-- Sub headline -->
  <text x="36" y="272" font-family="'Courier New', Courier, monospace" font-size="18" fill="#94a3b8" letter-spacing="0.2">In plain English. Get SQL-powered answers in milliseconds.</text>
  <text x="36" y="296" font-family="'Courier New', Courier, monospace" font-size="18" fill="#94a3b8" letter-spacing="0.2">No analysts. No dashboards. No waiting.</text>

  <!-- ── DIVIDER LINE ── -->
  <rect x="36" y="318" width="560" height="1" fill="#06b6d4" fill-opacity="0.25" shape-rendering="crispEdges"/>

  <!-- ── FEATURE PILLS (left side) ── -->

  <!-- Feature 1: NL2SQL -->
  <g transform="translate(36, 332)">
    <rect width="260" height="52" fill="#060c18" stroke="#06b6d4" stroke-width="1" stroke-opacity="0.5" shape-rendering="crispEdges"/>
    <rect x="0" y="0" width="4" height="4" fill="#06b6d4" shape-rendering="crispEdges"/>
    <rect x="256" y="0" width="4" height="4" fill="#06b6d4" shape-rendering="crispEdges"/>
    <rect x="0" y="48" width="4" height="4" fill="#06b6d4" shape-rendering="crispEdges"/>
    <rect x="256" y="48" width="4" height="4" fill="#06b6d4" shape-rendering="crispEdges"/>
    <!-- Mini terminal icon pixels -->
    <rect x="10" y="10" width="24" height="16" fill="#060c18" stroke="#8b5cf6" stroke-width="1" stroke-opacity="0.5" shape-rendering="crispEdges"/>
    <rect x="10" y="10" width="24" height="5" fill="#8b5cf6" fill-opacity="0.3" shape-rendering="crispEdges"/>
    <rect x="12" y="17" width="8" height="2" fill="#06b6d4" shape-rendering="crispEdges"/>
    <rect x="12" y="21" width="6" height="2" fill="#06b6d4" shape-rendering="crispEdges"/>
    <rect x="19" y="21" width="2" height="2" fill="#f59e0b" shape-rendering="crispEdges">
      <animate attributeName="opacity" values="1;0;1" dur="1s" repeatCount="indefinite"/>
    </rect>
    <text x="42" y="20" font-family="'Courier New', monospace" font-size="10" fill="#06b6d4" letter-spacing="0.5" font-weight="bold">NL TO SQL</text>
    <text x="42" y="34" font-family="'Courier New', monospace" font-size="8" fill="#64748b">Type a question, get SQL instantly</text>
    <text x="10" y="47" font-family="'Courier New', monospace" font-size="7" fill="#4ade80" letter-spacing="0.5">✓ 99%+ accuracy with self-healing</text>
  </g>

  <!-- Feature 2: Multi-DB -->
  <g transform="translate(308, 332)">
    <rect width="260" height="52" fill="#060c18" stroke="#8b5cf6" stroke-width="1" stroke-opacity="0.5" shape-rendering="crispEdges"/>
    <rect x="0" y="0" width="4" height="4" fill="#8b5cf6" shape-rendering="crispEdges"/>
    <rect x="256" y="0" width="4" height="4" fill="#8b5cf6" shape-rendering="crispEdges"/>
    <rect x="0" y="48" width="4" height="4" fill="#8b5cf6" shape-rendering="crispEdges"/>
    <rect x="256" y="48" width="4" height="4" fill="#8b5cf6" shape-rendering="crispEdges"/>
    <!-- DB stack icon pixels -->
    <rect x="10" y="10" width="24" height="5" fill="#060c18" stroke="#60a5fa" stroke-width="0.75" shape-rendering="crispEdges"/>
    <rect x="10" y="16" width="24" height="5" fill="#060c18" stroke="#4ade80" stroke-width="0.75" shape-rendering="crispEdges"/>
    <rect x="10" y="22" width="24" height="5" fill="#060c18" stroke="#f97316" stroke-width="0.75" shape-rendering="crispEdges"/>
    <!-- DB ellipse tops -->
    <rect x="12" y="10" width="20" height="2" fill="#60a5fa" fill-opacity="0.4" shape-rendering="crispEdges"/>
    <rect x="12" y="16" width="20" height="2" fill="#4ade80" fill-opacity="0.4" shape-rendering="crispEdges"/>
    <rect x="12" y="22" width="20" height="2" fill="#f97316" fill-opacity="0.4" shape-rendering="crispEdges"/>
    <text x="42" y="20" font-family="'Courier New', monospace" font-size="10" fill="#8b5cf6" letter-spacing="0.5" font-weight="bold">MULTI-DATABASE</text>
    <text x="42" y="34" font-family="'Courier New', monospace" font-size="8" fill="#64748b">Postgres, Mongo, Snowflake &amp; more</text>
    <text x="10" y="47" font-family="'Courier New', monospace" font-size="7" fill="#4ade80" letter-spacing="0.5">✓ One query across all your data</text>
  </g>

  <!-- Feature 3: Zero-code -->
  <g transform="translate(36, 398)">
    <rect width="260" height="52" fill="#060c18" stroke="#f59e0b" stroke-width="1" stroke-opacity="0.5" shape-rendering="crispEdges"/>
    <rect x="0" y="0" width="4" height="4" fill="#f59e0b" shape-rendering="crispEdges"/>
    <rect x="256" y="0" width="4" height="4" fill="#f59e0b" shape-rendering="crispEdges"/>
    <rect x="0" y="48" width="4" height="4" fill="#f59e0b" shape-rendering="crispEdges"/>
    <rect x="256" y="48" width="4" height="4" fill="#f59e0b" shape-rendering="crispEdges"/>
    <!-- Person pixel: simplified -->
    <rect x="18" y="11" width="8" height="8" fill="#f59e0b" fill-opacity="0.6" shape-rendering="crispEdges"/>
    <rect x="14" y="20" width="16" height="6" fill="#f59e0b" fill-opacity="0.5" shape-rendering="crispEdges"/>
    <text x="42" y="20" font-family="'Courier New', monospace" font-size="10" fill="#f59e0b" letter-spacing="0.5" font-weight="bold">ZERO TRAINING</text>
    <text x="42" y="34" font-family="'Courier New', monospace" font-size="8" fill="#64748b">Any employee can query live data</text>
    <text x="10" y="47" font-family="'Courier New', monospace" font-size="7" fill="#4ade80" letter-spacing="0.5">✓ No SQL, no BI tool needed</text>
  </g>

  <!-- Feature 4: Embed -->
  <g transform="translate(308, 398)">
    <rect width="260" height="52" fill="#060c18" stroke="#22d3ee" stroke-width="1" stroke-opacity="0.5" shape-rendering="crispEdges"/>
    <rect x="0" y="0" width="4" height="4" fill="#22d3ee" shape-rendering="crispEdges"/>
    <rect x="256" y="0" width="4" height="4" fill="#22d3ee" shape-rendering="crispEdges"/>
    <rect x="0" y="48" width="4" height="4" fill="#22d3ee" shape-rendering="crispEdges"/>
    <rect x="256" y="48" width="4" height="4" fill="#22d3ee" shape-rendering="crispEdges"/>
    <!-- Window frame pixel icon -->
    <rect x="10" y="11" width="24" height="16" fill="#060c18" stroke="#22d3ee" stroke-width="0.75" shape-rendering="crispEdges"/>
    <rect x="10" y="11" width="24" height="4" fill="#22d3ee" fill-opacity="0.2" shape-rendering="crispEdges"/>
    <rect x="14" y="17" width="16" height="2" fill="#22d3ee" fill-opacity="0.5" shape-rendering="crispEdges"/>
    <rect x="14" y="21" width="10" height="2" fill="#22d3ee" fill-opacity="0.3" shape-rendering="crispEdges"/>
    <text x="42" y="20" font-family="'Courier New', monospace" font-size="10" fill="#22d3ee" letter-spacing="0.5" font-weight="bold">EMBEDDABLE</text>
    <text x="42" y="34" font-family="'Courier New', monospace" font-size="8" fill="#64748b">Embed in your app or internal tools</text>
    <text x="10" y="47" font-family="'Courier New', monospace" font-size="7" fill="#4ade80" letter-spacing="0.5">✓ iFrame + API access</text>
  </g>

  <!-- Feature 5: LLM -->
  <g transform="translate(36, 464)">
    <rect width="260" height="52" fill="#060c18" stroke="#8b5cf6" stroke-width="1" stroke-opacity="0.5" shape-rendering="crispEdges"/>
    <rect x="0" y="0" width="4" height="4" fill="#8b5cf6" shape-rendering="crispEdges"/>
    <rect x="256" y="0" width="4" height="4" fill="#8b5cf6" shape-rendering="crispEdges"/>
    <rect x="0" y="48" width="4" height="4" fill="#8b5cf6" shape-rendering="crispEdges"/>
    <rect x="256" y="48" width="4" height="4" fill="#8b5cf6" shape-rendering="crispEdges"/>
    <!-- Brain pixel -->
    <rect x="14" y="13" width="4" height="4" fill="#8b5cf6" shape-rendering="crispEdges"/>
    <rect x="26" y="13" width="4" height="4" fill="#8b5cf6" shape-rendering="crispEdges"/>
    <rect x="12" y="17" width="20" height="4" fill="#8b5cf6" shape-rendering="crispEdges"/>
    <rect x="14" y="21" width="16" height="3" fill="#8b5cf6" fill-opacity="0.6" shape-rendering="crispEdges"/>
    <text x="42" y="20" font-family="'Courier New', monospace" font-size="10" fill="#8b5cf6" letter-spacing="0.5" font-weight="bold">MULTI-LLM</text>
    <text x="42" y="34" font-family="'Courier New', monospace" font-size="8" fill="#64748b">GPT-4o, Claude, Gemini, or local</text>
    <text x="10" y="47" font-family="'Courier New', monospace" font-size="7" fill="#4ade80" letter-spacing="0.5">✓ Bring your own model</text>
  </g>

  <!-- Feature 6: RBAC -->
  <g transform="translate(308, 464)">
    <rect width="260" height="52" fill="#060c18" stroke="#4ade80" stroke-width="1" stroke-opacity="0.5" shape-rendering="crispEdges"/>
    <rect x="0" y="0" width="4" height="4" fill="#4ade80" shape-rendering="crispEdges"/>
    <rect x="256" y="0" width="4" height="4" fill="#4ade80" shape-rendering="crispEdges"/>
    <rect x="0" y="48" width="4" height="4" fill="#4ade80" shape-rendering="crispEdges"/>
    <rect x="256" y="48" width="4" height="4" fill="#4ade80" shape-rendering="crispEdges"/>
    <!-- Shield pixel -->
    <rect x="18" y="11" width="8" height="3" fill="#4ade80" shape-rendering="crispEdges"/>
    <rect x="16" y="14" width="12" height="6" fill="#4ade80" fill-opacity="0.7" shape-rendering="crispEdges"/>
    <rect x="18" y="20" width="8" height="4" fill="#4ade80" fill-opacity="0.5" shape-rendering="crispEdges"/>
    <rect x="20" y="24" width="4" height="3" fill="#4ade80" fill-opacity="0.4" shape-rendering="crispEdges"/>
    <text x="42" y="20" font-family="'Courier New', monospace" font-size="10" fill="#4ade80" letter-spacing="0.5" font-weight="bold">SECURE &amp; RBAC</text>
    <text x="42" y="34" font-family="'Courier New', monospace" font-size="8" fill="#64748b">Role-based data access control</text>
    <text x="10" y="47" font-family="'Courier New', monospace" font-size="7" fill="#4ade80" letter-spacing="0.5">✓ Users only see what they should</text>
  </g>

  <!-- ── WEBSITE URL BADGE ── -->
  <g transform="translate(36, 530)">
    <rect width="532" height="36" fill="#06b6d4" fill-opacity="0.08" stroke="#06b6d4" stroke-width="1" stroke-opacity="0.5" shape-rendering="crispEdges"/>
    <rect x="0" y="0" width="5" height="5" fill="#06b6d4" shape-rendering="crispEdges"/>
    <rect x="527" y="0" width="5" height="5" fill="#06b6d4" shape-rendering="crispEdges"/>
    <rect x="0" y="31" width="5" height="5" fill="#06b6d4" shape-rendering="crispEdges"/>
    <rect x="527" y="31" width="5" height="5" fill="#06b6d4" shape-rendering="crispEdges"/>
    <text x="16" y="13" font-family="'Courier New', monospace" font-size="8" fill="#64748b" letter-spacing="1">VISIT US AT</text>
    <text x="16" y="29" font-family="'Courier New', Courier, monospace" font-size="16" font-weight="700" fill="#06b6d4" letter-spacing="1" filter="url(#glow)">omniquery.ai</text>
    <!-- Blinking cursor after URL -->
    <rect x="161" y="19" width="6" height="12" fill="#f59e0b" shape-rendering="crispEdges">
      <animate attributeName="opacity" values="1;0;1" dur="1s" repeatCount="indefinite"/>
    </rect>
    <text x="180" y="29" font-family="'Courier New', monospace" font-size="9" fill="#4ade80" letter-spacing="1">← Try it free. No credit card needed.</text>
  </g>


  <!-- ── RIGHT SIDE: PIXEL ART ARCHITECTURE CANVAS ── -->

  <!-- Main dark card for right panel -->
  <rect x="622" y="112" width="560" height="488" fill="#060c18" stroke="#06b6d4" stroke-width="1" stroke-opacity="0.35" shape-rendering="crispEdges"/>
  <rect x="622" y="0" width="4" height="4" fill="#06b6d4" shape-rendering="crispEdges" opacity="0"/>

  <!-- Right panel top label -->
  <rect x="622" y="112" width="560" height="20" fill="#06b6d4" fill-opacity="0.07" shape-rendering="crispEdges"/>
  <text x="902" y="125" text-anchor="middle" font-family="'Courier New', monospace" font-size="8" fill="#06b6d4" letter-spacing="2.5">HOW IT WORKS</text>

  <!-- Scan sweep animation on right panel -->
  <rect x="622" y="112" width="560" height="2" fill="#06b6d4" opacity="0.08" shape-rendering="crispEdges">
    <animate attributeName="y" values="112;600;112" dur="5s" repeatCount="indefinite"/>
  </rect>

  <!-- ── STEP 1: User asks a question ── -->
  <g transform="translate(648, 148)">
    <rect width="508" height="72" fill="#060c18" stroke="#8b5cf6" stroke-width="1" stroke-opacity="0.5" shape-rendering="crispEdges"/>
    <rect x="0" y="0" width="4" height="4" fill="#8b5cf6" shape-rendering="crispEdges"/>
    <rect x="504" y="0" width="4" height="4" fill="#8b5cf6" shape-rendering="crispEdges"/>
    <rect x="0" y="68" width="4" height="4" fill="#8b5cf6" shape-rendering="crispEdges"/>
    <rect x="504" y="68" width="4" height="4" fill="#8b5cf6" shape-rendering="crispEdges"/>
    <!-- Step label -->
    <rect x="0" y="0" width="508" height="16" fill="#8b5cf6" fill-opacity="0.12" shape-rendering="crispEdges"/>
    <text x="8" y="11" font-family="'Courier New', monospace" font-size="7" fill="#8b5cf6" letter-spacing="2">STEP 01 — USER ASKS</text>
    <!-- Text input bar -->
    <rect x="8" y="22" width="492" height="24" fill="#030712" stroke="#8b5cf6" stroke-width="0.5" stroke-opacity="0.4" shape-rendering="crispEdges"/>
    <text x="14" y="38" font-family="'Courier New', monospace" font-size="12" fill="#94a3b8">"</text>
    <text x="22" y="38" font-family="'Courier New', monospace" font-size="11" fill="white">Show me top 5 products by revenue this quarter</text>
    <text x="384" y="38" font-family="'Courier New', monospace" font-size="12" fill="#94a3b8">"</text>
    <rect x="392" y="26" width="5" height="14" fill="#f59e0b" shape-rendering="crispEdges">
      <animate attributeName="opacity" values="1;0;1" dur="1s" repeatCount="indefinite"/>
    </rect>
    <text x="8" y="60" font-family="'Courier New', monospace" font-size="7" fill="#64748b" letter-spacing="0.5">Any employee. Any question. Zero SQL knowledge required.</text>
  </g>

  <!-- Arrow 1 → 2 -->
  <path d="M 902,222 L 902,248" fill="none" stroke="#06b6d4" stroke-width="1.5" stroke-opacity="0.5" stroke-dasharray="4 3" shape-rendering="crispEdges">
    <animate attributeName="stroke-dashoffset" values="0;-14" dur="1s" repeatCount="indefinite"/>
  </path>
  <polygon points="898,248 902,256 906,248" fill="#06b6d4" opacity="0.7"/>
  <circle r="3" fill="#06b6d4" filter="url(#glow)">
    <animateMotion path="M 902,222 L 902,254" dur="1.2s" repeatCount="indefinite"/>
  </circle>

  <!-- ── STEP 2: AI generates SQL ── -->
  <g transform="translate(648, 260)">
    <rect width="508" height="88" fill="#060c18" stroke="#06b6d4" stroke-width="1.5" stroke-opacity="0.8" shape-rendering="crispEdges"/>
    <rect x="0" y="0" width="5" height="5" fill="#06b6d4" shape-rendering="crispEdges"/>
    <rect x="503" y="0" width="5" height="5" fill="#06b6d4" shape-rendering="crispEdges"/>
    <rect x="0" y="83" width="5" height="5" fill="#06b6d4" shape-rendering="crispEdges"/>
    <rect x="503" y="83" width="5" height="5" fill="#06b6d4" shape-rendering="crispEdges"/>
    <rect x="0" y="0" width="508" height="16" fill="#06b6d4" fill-opacity="0.12" shape-rendering="crispEdges"/>
    <text x="8" y="11" font-family="'Courier New', monospace" font-size="7" fill="#06b6d4" letter-spacing="2">STEP 02 — OMNIQUERY AI GENERATES SQL</text>
    <!-- OmniQuery inline badge -->
    <circle cx="496" cy="8" r="4" fill="#4ade80">
      <animate attributeName="opacity" values="1;0.3;1" dur="2s" repeatCount="indefinite"/>
    </circle>
    <!-- SQL code -->
    <text x="10" y="33" font-family="'Courier New', monospace" font-size="9" fill="#8b5cf6">SELECT</text>
    <text x="56" y="33" font-family="'Courier New', monospace" font-size="9" fill="#94a3b8"> product_name, SUM(revenue) AS total</text>
    <text x="10" y="46" font-family="'Courier New', monospace" font-size="9" fill="#8b5cf6">FROM</text>
    <text x="42" y="46" font-family="'Courier New', monospace" font-size="9" fill="#94a3b8"> sales</text>
    <text x="10" y="58" font-family="'Courier New', monospace" font-size="9" fill="#8b5cf6">WHERE</text>
    <text x="50" y="58" font-family="'Courier New', monospace" font-size="9" fill="#94a3b8"> quarter = </text>
    <text x="116" y="58" font-family="'Courier New', monospace" font-size="9" fill="#4ade80">'Q1 2026'</text>
    <text x="10" y="71" font-family="'Courier New', monospace" font-size="9" fill="#8b5cf6">ORDER BY</text>
    <text x="72" y="71" font-family="'Courier New', monospace" font-size="9" fill="#94a3b8"> total </text>
    <text x="108" y="71" font-family="'Courier New', monospace" font-size="9" fill="#8b5cf6">DESC LIMIT</text>
    <text x="184" y="71" font-family="'Courier New', monospace" font-size="9" fill="#f59e0b"> 5</text>
    <text x="197" y="71" font-family="'Courier New', monospace" font-size="9" fill="#94a3b8">;</text>
    <!-- Self-heal label -->
    <rect x="340" y="58" width="152" height="14" fill="#4ade80" fill-opacity="0.08" stroke="#4ade80" stroke-width="0.5" stroke-opacity="0.4" shape-rendering="crispEdges"/>
    <text x="346" y="68" font-family="'Courier New', monospace" font-size="7" fill="#4ade80" letter-spacing="0.5">⚙ self-healing · validated</text>
  </g>

  <!-- Arrow 2 → 3 -->
  <path d="M 902,350 L 902,374" fill="none" stroke="#06b6d4" stroke-width="1.5" stroke-opacity="0.5" stroke-dasharray="4 3" shape-rendering="crispEdges">
    <animate attributeName="stroke-dashoffset" values="0;-14" dur="1s" repeatCount="indefinite"/>
  </path>
  <polygon points="898,374 902,382 906,374" fill="#06b6d4" opacity="0.7"/>
  <circle r="3" fill="#06b6d4" filter="url(#glow)">
    <animateMotion path="M 902,350 L 902,380" dur="1.2s" repeatCount="indefinite"/>
  </circle>

  <!-- ── STEP 3: Queries multiple databases ── -->
  <g transform="translate(648, 386)">
    <rect width="508" height="68" fill="#060c18" stroke="#60a5fa" stroke-width="1" stroke-opacity="0.5" shape-rendering="crispEdges"/>
    <rect x="0" y="0" width="4" height="4" fill="#60a5fa" shape-rendering="crispEdges"/>
    <rect x="504" y="0" width="4" height="4" fill="#60a5fa" shape-rendering="crispEdges"/>
    <rect x="0" y="64" width="4" height="4" fill="#60a5fa" shape-rendering="crispEdges"/>
    <rect x="504" y="64" width="4" height="4" fill="#60a5fa" shape-rendering="crispEdges"/>
    <rect x="0" y="0" width="508" height="16" fill="#60a5fa" fill-opacity="0.08" shape-rendering="crispEdges"/>
    <text x="8" y="11" font-family="'Courier New', monospace" font-size="7" fill="#60a5fa" letter-spacing="2">STEP 03 — FEDERATED QUERY ACROSS SOURCES</text>
    <!-- DB source chips -->
    <rect x="8"   y="22" width="80" height="16" fill="#060c18" stroke="#60a5fa" stroke-width="0.75" stroke-opacity="0.6" shape-rendering="crispEdges"/>
    <text x="48"  y="33" text-anchor="middle" font-family="'Courier New', monospace" font-size="7" fill="#60a5fa">PostgreSQL</text>

    <rect x="98"  y="22" width="70" height="16" fill="#060c18" stroke="#4ade80" stroke-width="0.75" stroke-opacity="0.6" shape-rendering="crispEdges"/>
    <text x="133" y="33" text-anchor="middle" font-family="'Courier New', monospace" font-size="7" fill="#4ade80">MongoDB</text>

    <rect x="178" y="22" width="78" height="16" fill="#060c18" stroke="#38bdf8" stroke-width="0.75" stroke-opacity="0.6" shape-rendering="crispEdges"/>
    <text x="217" y="33" text-anchor="middle" font-family="'Courier New', monospace" font-size="7" fill="#38bdf8">Snowflake</text>

    <rect x="266" y="22" width="60" height="16" fill="#060c18" stroke="#f97316" stroke-width="0.75" stroke-opacity="0.6" shape-rendering="crispEdges"/>
    <text x="296" y="33" text-anchor="middle" font-family="'Courier New', monospace" font-size="7" fill="#f97316">MySQL</text>

    <rect x="336" y="22" width="50" height="16" fill="#060c18" stroke="#fbbf24" stroke-width="0.75" stroke-opacity="0.6" shape-rendering="crispEdges"/>
    <text x="361" y="33" text-anchor="middle" font-family="'Courier New', monospace" font-size="7" fill="#fbbf24">S3</text>

    <rect x="396" y="22" width="70" height="16" fill="#060c18" stroke="#818cf8" stroke-width="0.75" stroke-opacity="0.6" shape-rendering="crispEdges"/>
    <text x="431" y="33" text-anchor="middle" font-family="'Courier New', monospace" font-size="7" fill="#818cf8">BigQuery</text>

    <!-- Arrow connecting sources → result -->
    <path d="M 8,46 L 490,46" fill="none" stroke="#06b6d4" stroke-width="1" stroke-opacity="0.3" stroke-dasharray="3 3" shape-rendering="crispEdges">
      <animate attributeName="stroke-dashoffset" values="0;-12" dur="1.5s" repeatCount="indefinite"/>
    </path>
    <polygon points="486,43 492,46 486,49" fill="#06b6d4" opacity="0.6"/>
    <text x="8" y="60" font-family="'Courier New', monospace" font-size="7" fill="#64748b" letter-spacing="0.5">Unified federated query. No ETL required. Live data.</text>
  </g>

  <!-- Arrow 3 → 4 -->
  <path d="M 902,456 L 902,474" fill="none" stroke="#4ade80" stroke-width="1.5" stroke-opacity="0.5" stroke-dasharray="4 3" shape-rendering="crispEdges">
    <animate attributeName="stroke-dashoffset" values="0;-14" dur="1s" repeatCount="indefinite"/>
  </path>
  <polygon points="898,474 902,482 906,474" fill="#4ade80" opacity="0.7"/>
  <circle r="3" fill="#4ade80" filter="url(#glow)">
    <animateMotion path="M 902,456 L 902,480" dur="1.2s" repeatCount="indefinite"/>
  </circle>

  <!-- ── STEP 4: Instant result ── -->
  <g transform="translate(648, 486)">
    <rect width="508" height="100" fill="#060c18" stroke="#4ade80" stroke-width="1.5" stroke-opacity="0.7" shape-rendering="crispEdges"/>
    <rect x="0" y="0" width="5" height="5" fill="#4ade80" shape-rendering="crispEdges"/>
    <rect x="503" y="0" width="5" height="5" fill="#4ade80" shape-rendering="crispEdges"/>
    <rect x="0" y="95" width="5" height="5" fill="#4ade80" shape-rendering="crispEdges"/>
    <rect x="503" y="95" width="5" height="5" fill="#4ade80" shape-rendering="crispEdges"/>
    <rect x="0" y="0" width="508" height="16" fill="#4ade80" fill-opacity="0.1" shape-rendering="crispEdges"/>
    <text x="8" y="11" font-family="'Courier New', monospace" font-size="7" fill="#4ade80" letter-spacing="2">STEP 04 — INSTANT RESULT</text>
    <circle cx="498" cy="8" r="4" fill="#4ade80">
      <animate attributeName="opacity" values="1;0.3;1" dur="2s" repeatCount="indefinite"/>
    </circle>
    <!-- Result table header -->
    <rect x="8" y="20" width="492" height="12" fill="#06b6d4" fill-opacity="0.1" shape-rendering="crispEdges"/>
    <text x="12" y="29" font-family="'Courier New', monospace" font-size="7" fill="#06b6d4" letter-spacing="1">PRODUCT_NAME</text>
    <text x="220" y="29" font-family="'Courier New', monospace" font-size="7" fill="#06b6d4" letter-spacing="1">TOTAL_REVENUE</text>
    <text x="400" y="29" font-family="'Courier New', monospace" font-size="7" fill="#06b6d4" letter-spacing="1">RANK</text>
    <!-- Result rows -->
    <text x="12" y="42" font-family="'Courier New', monospace" font-size="7" fill="#94a3b8">Enterprise Suite Pro</text>
    <text x="220" y="42" font-family="'Courier New', monospace" font-size="7" fill="#4ade80">$2,840,000</text>
    <text x="400" y="42" font-family="'Courier New', monospace" font-size="7" fill="#f59e0b">#1</text>

    <text x="12" y="53" font-family="'Courier New', monospace" font-size="7" fill="#94a3b8">Analytics Platform</text>
    <text x="220" y="53" font-family="'Courier New', monospace" font-size="7" fill="#4ade80">$1,920,400</text>
    <text x="400" y="53" font-family="'Courier New', monospace" font-size="7" fill="#94a3b8">#2</text>

    <text x="12" y="64" font-family="'Courier New', monospace" font-size="7" fill="#94a3b8">Data Connector SDK</text>
    <text x="220" y="64" font-family="'Courier New', monospace" font-size="7" fill="#4ade80">$1,104,800</text>
    <text x="400" y="64" font-family="'Courier New', monospace" font-size="7" fill="#94a3b8">#3</text>

    <rect x="8" y="72" width="492" height="1" fill="#06b6d4" fill-opacity="0.15" shape-rendering="crispEdges"/>
    <text x="8" y="83" font-family="'Courier New', monospace" font-size="7" fill="#8b5cf6">⚡ Result in 280ms  ·  Self-healed: 0 retries  ·  Confidence: 99%</text>
    <text x="8" y="95" font-family="'Courier New', monospace" font-size="7" fill="#64748b">Any question. Any database. Under 500ms.</text>
  </g>

  <!-- ── BOTTOM TAGLINE ── -->
  <text x="902" y="609" text-anchor="middle" font-family="'Courier New', monospace" font-size="9" fill="#06b6d4" fill-opacity="0.5" letter-spacing="2">DEMOCRATIZE YOUR DATA WITH AI · OMNIQUERY.AI</text>

</svg>
