<svg width="960" height="1100" viewBox="0 0 960 1100" xmlns="http://www.w3.org/2000/svg">
  <defs>
    <filter id="glow" x="-30%" y="-30%" width="160%" height="160%">
      <feGaussianBlur in="SourceGraphic" stdDeviation="4" result="blur"/>
      <feMerge><feMergeNode in="blur"/><feMergeNode in="SourceGraphic"/></feMerge>
    </filter>
    <filter id="glow-sm" x="-20%" y="-20%" width="140%" height="140%">
      <feGaussianBlur in="SourceGraphic" stdDeviation="2" result="blur"/>
      <feMerge><feMergeNode in="blur"/><feMergeNode in="SourceGraphic"/></feMerge>
    </filter>
    <pattern id="grid" width="24" height="24" patternUnits="userSpaceOnUse">
      <path d="M 24 0 L 0 0 0 24" fill="none" stroke="rgba(6,182,212,0.04)" stroke-width="0.5"/>
    </pattern>
    <pattern id="scanlines" width="1" height="4" patternUnits="userSpaceOnUse">
      <rect width="1" height="1" fill="rgba(6,182,212,0.15)"/>
    </pattern>
  </defs>

  <!-- Background -->
  <rect width="960" height="1100" fill="#030712"/>
  <rect width="960" height="1100" fill="url(#grid)"/>

  <!-- Title -->
  <rect x="280" y="18" width="400" height="28" fill="#06b6d4" fill-opacity="0.08" stroke="#06b6d4" stroke-width="0.5" shape-rendering="crispEdges"/>
  <text x="480" y="36" text-anchor="middle" font-family="'Courier New', monospace" font-size="12" fill="#06b6d4" letter-spacing="3">NL2SQL — OMNIQUERY PIPELINE</text>

  <!-- ============================================================ -->
  <!-- STEP 1: USER INPUT -->
  <!-- ============================================================ -->
  <g transform="translate(330, 65)">
    <!-- Card -->
    <rect width="300" height="90" fill="#060c18" stroke="#06b6d4" stroke-width="1" shape-rendering="crispEdges"/>
    <rect x="0" y="0" width="4" height="4" fill="#06b6d4" shape-rendering="crispEdges"/>
    <rect x="296" y="0" width="4" height="4" fill="#06b6d4" shape-rendering="crispEdges"/>
    <rect x="0" y="86" width="4" height="4" fill="#06b6d4" shape-rendering="crispEdges"/>
    <rect x="296" y="86" width="4" height="4" fill="#06b6d4" shape-rendering="crispEdges"/>
    <!-- Scanlines -->
    <rect width="300" height="90" fill="url(#scanlines)" opacity="0.04" shape-rendering="crispEdges"/>

    <!-- Person/User icon (8x8 pixel) at left -->
    <g transform="translate(14, 18)" shape-rendering="crispEdges">
      <!-- head -->
      <rect x="9" y="0" width="6" height="6" fill="#06b6d4"/>
      <!-- shoulders -->
      <rect x="3" y="8" width="18" height="6" fill="#06b6d4"/>
      <!-- body -->
      <rect x="6" y="14" width="12" height="8" fill="#06b6d4"/>
    </g>

    <!-- Label -->
    <text x="150" y="38" text-anchor="middle" font-family="'Courier New', monospace" font-size="11" fill="#06b6d4" letter-spacing="2" font-weight="bold">USER INPUT</text>
    <!-- Subtitle -->
    <text x="150" y="56" text-anchor="middle" font-family="'Courier New', monospace" font-size="9" fill="#94a3b8" letter-spacing="1">"Show me top 10 products by revenue"</text>
    <!-- Blinking cursor -->
    <rect x="252" y="46" width="4" height="8" fill="#f59e0b" shape-rendering="crispEdges">
      <animate attributeName="opacity" values="1;0;1" dur="1s" repeatCount="indefinite"/>
    </rect>
    <!-- Status dot -->
    <circle cx="286" cy="12" r="3" fill="#4ade80">
      <animate attributeName="opacity" values="1;0.3;1" dur="2s" repeatCount="indefinite"/>
    </circle>
    <!-- Step label -->
    <rect x="0" y="74" width="56" height="16" fill="#06b6d4" fill-opacity="0.15" shape-rendering="crispEdges"/>
    <text x="28" y="85" text-anchor="middle" font-family="'Courier New', monospace" font-size="8" fill="#06b6d4" letter-spacing="1">STEP 1</text>
  </g>

  <!-- Arrow 1→2 (down) -->
  <line x1="480" y1="155" x2="480" y2="185" stroke="#06b6d4" stroke-width="1.5" stroke-dasharray="4 3" shape-rendering="crispEdges">
    <animate attributeName="stroke-dashoffset" values="0;-14" dur="1s" repeatCount="indefinite"/>
  </line>
  <circle r="3" fill="#06b6d4" filter="url(#glow-sm)">
    <animateMotion path="M 480,155 L 480,185" dur="1.2s" repeatCount="indefinite"/>
  </circle>
  <polygon points="480,190 474,178 486,178" fill="#06b6d4" shape-rendering="crispEdges"/>

  <!-- ============================================================ -->
  <!-- STEP 2: VECTOR SEARCH / SCHEMA RETRIEVAL (split into two columns) -->
  <!-- ============================================================ -->
  <!-- Section Label -->
  <rect x="200" y="195" width="560" height="18" fill="#8b5cf6" fill-opacity="0.08" stroke="#8b5cf6" stroke-width="0.5" shape-rendering="crispEdges"/>
  <text x="480" y="207" text-anchor="middle" font-family="'Courier New', monospace" font-size="9" fill="#8b5cf6" letter-spacing="2">SCHEMA RETRIEVAL LAYER</text>

  <!-- LEFT: Vector DB card -->
  <g transform="translate(160, 225)">
    <rect width="240" height="100" fill="#060c18" stroke="#8b5cf6" stroke-width="1" shape-rendering="crispEdges"/>
    <rect x="0" y="0" width="4" height="4" fill="#8b5cf6" shape-rendering="crispEdges"/>
    <rect x="236" y="0" width="4" height="4" fill="#8b5cf6" shape-rendering="crispEdges"/>
    <rect x="0" y="96" width="4" height="4" fill="#8b5cf6" shape-rendering="crispEdges"/>
    <rect x="236" y="96" width="4" height="4" fill="#8b5cf6" shape-rendering="crispEdges"/>
    <rect width="240" height="100" fill="url(#scanlines)" opacity="0.04" shape-rendering="crispEdges"/>

    <!-- Vector/embed icon (8x8 grid style) -->
    <g transform="translate(10, 12)" shape-rendering="crispEdges">
      <rect x="0"  y="0"  width="5" height="5" fill="#8b5cf6" opacity="0.9"/>
      <rect x="8"  y="0"  width="5" height="5" fill="#8b5cf6" opacity="0.6"/>
      <rect x="16" y="0"  width="5" height="5" fill="#8b5cf6" opacity="0.3"/>
      <rect x="0"  y="8"  width="5" height="5" fill="#8b5cf6" opacity="0.6"/>
      <rect x="8"  y="8"  width="5" height="5" fill="#8b5cf6" opacity="0.9"/>
      <rect x="16" y="8"  width="5" height="5" fill="#8b5cf6" opacity="0.3"/>
      <rect x="0"  y="16" width="5" height="5" fill="#8b5cf6" opacity="0.3"/>
      <rect x="8"  y="16" width="5" height="5" fill="#8b5cf6" opacity="0.6"/>
      <rect x="16" y="16" width="5" height="5" fill="#8b5cf6" opacity="0.9"/>
    </g>

    <text x="120" y="45" text-anchor="middle" font-family="'Courier New', monospace" font-size="11" fill="#8b5cf6" letter-spacing="2" font-weight="bold">VECTOR DB</text>
    <text x="120" y="62" text-anchor="middle" font-family="'Courier New', monospace" font-size="8" fill="#94a3b8" letter-spacing="1">Embed user query</text>
    <text x="120" y="75" text-anchor="middle" font-family="'Courier New', monospace" font-size="8" fill="#94a3b8" letter-spacing="1">Cosine similarity search</text>
    <text x="120" y="88" text-anchor="middle" font-family="'Courier New', monospace" font-size="8" fill="#94a3b8" letter-spacing="1">ChromaDB / FAISS</text>
    <circle cx="228" cy="12" r="3" fill="#4ade80">
      <animate attributeName="opacity" values="1;0.3;1" dur="2.4s" repeatCount="indefinite"/>
    </circle>
    <rect x="0" y="84" width="56" height="16" fill="#8b5cf6" fill-opacity="0.15" shape-rendering="crispEdges"/>
    <text x="28" y="95" text-anchor="middle" font-family="'Courier New', monospace" font-size="8" fill="#8b5cf6" letter-spacing="1">STEP 2a</text>
  </g>

  <!-- RIGHT: Table Metadata card -->
  <g transform="translate(560, 225)">
    <rect width="240" height="100" fill="#060c18" stroke="#8b5cf6" stroke-width="1" shape-rendering="crispEdges"/>
    <rect x="0" y="0" width="4" height="4" fill="#8b5cf6" shape-rendering="crispEdges"/>
    <rect x="236" y="0" width="4" height="4" fill="#8b5cf6" shape-rendering="crispEdges"/>
    <rect x="0" y="96" width="4" height="4" fill="#8b5cf6" shape-rendering="crispEdges"/>
    <rect x="236" y="96" width="4" height="4" fill="#8b5cf6" shape-rendering="crispEdges"/>
    <rect width="240" height="100" fill="url(#scanlines)" opacity="0.04" shape-rendering="crispEdges"/>

    <!-- Table/DB icon -->
    <g transform="translate(10, 12)" shape-rendering="crispEdges">
      <!-- cylinder top -->
      <rect x="4"  y="0"  width="16" height="4"  fill="#60a5fa"/>
      <rect x="0"  y="4"  width="24" height="3"  fill="#60a5fa" opacity="0.6"/>
      <rect x="0"  y="9"  width="24" height="3"  fill="#60a5fa" opacity="0.4"/>
      <rect x="0"  y="14" width="24" height="3"  fill="#60a5fa" opacity="0.3"/>
      <rect x="4"  y="17" width="16" height="4"  fill="#60a5fa" opacity="0.5"/>
    </g>

    <text x="120" y="45" text-anchor="middle" font-family="'Courier New', monospace" font-size="11" fill="#60a5fa" letter-spacing="2" font-weight="bold">TABLE METADATA</text>
    <text x="120" y="62" text-anchor="middle" font-family="'Courier New', monospace" font-size="8" fill="#94a3b8" letter-spacing="1">Column names, types, keys</text>
    <text x="120" y="75" text-anchor="middle" font-family="'Courier New', monospace" font-size="8" fill="#94a3b8" letter-spacing="1">Sample values + relationships</text>
    <text x="120" y="88" text-anchor="middle" font-family="'Courier New', monospace" font-size="8" fill="#94a3b8" letter-spacing="1">Schema context injection</text>
    <circle cx="228" cy="12" r="3" fill="#4ade80">
      <animate attributeName="opacity" values="1;0.3;1" dur="1.8s" repeatCount="indefinite"/>
    </circle>
    <rect x="0" y="84" width="56" height="16" fill="#8b5cf6" fill-opacity="0.15" shape-rendering="crispEdges"/>
    <text x="28" y="95" text-anchor="middle" font-family="'Courier New', monospace" font-size="8" fill="#8b5cf6" letter-spacing="1">STEP 2b</text>
  </g>

  <!-- Connector from User Input to Vector DB -->
  <path d="M 480,155 C 480,200 280,210 280,225" fill="none" stroke="#8b5cf6" stroke-width="1.2" stroke-dasharray="4 3" stroke-opacity="0.5" shape-rendering="crispEdges">
    <animate attributeName="stroke-dashoffset" values="0;-14" dur="1.4s" repeatCount="indefinite"/>
  </path>
  <circle r="2.5" fill="#8b5cf6" filter="url(#glow-sm)">
    <animateMotion path="M 480,155 C 480,200 280,210 280,225" dur="1.6s" repeatCount="indefinite" calcMode="spline" keySplines="0.4 0 0.6 1"/>
  </circle>

  <!-- Connector from User Input to Table Metadata -->
  <path d="M 480,155 C 480,200 680,210 680,225" fill="none" stroke="#8b5cf6" stroke-width="1.2" stroke-dasharray="4 3" stroke-opacity="0.5" shape-rendering="crispEdges">
    <animate attributeName="stroke-dashoffset" values="0;-14" dur="1.4s" repeatCount="indefinite"/>
  </path>
  <circle r="2.5" fill="#8b5cf6" filter="url(#glow-sm)">
    <animateMotion path="M 480,155 C 480,200 680,210 680,225" dur="1.6s" repeatCount="indefinite" calcMode="spline" keySplines="0.4 0 0.6 1"/>
  </circle>

  <!-- Converging arrows from both cards down to Step 3 -->
  <path d="M 280,325 C 280,370 480,370 480,395" fill="none" stroke="#06b6d4" stroke-width="1.5" stroke-dasharray="4 3" shape-rendering="crispEdges">
    <animate attributeName="stroke-dashoffset" values="0;-14" dur="1.2s" repeatCount="indefinite"/>
  </path>
  <circle r="3" fill="#06b6d4" filter="url(#glow-sm)">
    <animateMotion path="M 280,325 C 280,370 480,370 480,395" dur="1.5s" repeatCount="indefinite" calcMode="spline" keySplines="0.4 0 0.6 1"/>
  </circle>

  <path d="M 680,325 C 680,370 480,370 480,395" fill="none" stroke="#06b6d4" stroke-width="1.5" stroke-dasharray="4 3" shape-rendering="crispEdges">
    <animate attributeName="stroke-dashoffset" values="0;-14" dur="1.2s" repeatCount="indefinite"/>
  </path>
  <circle r="3" fill="#06b6d4" filter="url(#glow-sm)">
    <animateMotion path="M 680,325 C 680,370 480,370 480,395" dur="1.5s" repeatCount="indefinite" calcMode="spline" keySplines="0.4 0 0.6 1"/>
  </circle>

  <polygon points="480,398 474,386 486,386" fill="#06b6d4" shape-rendering="crispEdges"/>

  <!-- ============================================================ -->
  <!-- STEP 3: LLM — QUERY GENERATION -->
  <!-- ============================================================ -->
  <g transform="translate(290, 405)">
    <rect width="380" height="105" fill="#060c18" stroke="#8b5cf6" stroke-width="1.5" shape-rendering="crispEdges"/>
    <rect x="0" y="0" width="5" height="5" fill="#8b5cf6" shape-rendering="crispEdges"/>
    <rect x="375" y="0" width="5" height="5" fill="#8b5cf6" shape-rendering="crispEdges"/>
    <rect x="0" y="100" width="5" height="5" fill="#8b5cf6" shape-rendering="crispEdges"/>
    <rect x="375" y="100" width="5" height="5" fill="#8b5cf6" shape-rendering="crispEdges"/>
    <rect width="380" height="105" fill="url(#scanlines)" opacity="0.04" shape-rendering="crispEdges"/>

    <!-- Purple scanline sweep -->
    <rect x="0" y="0" width="380" height="3" fill="#8b5cf6" opacity="0.12">
      <animate attributeName="y" values="-3;108;-3" dur="3s" repeatCount="indefinite"/>
    </rect>

    <!-- Brain icon (LLM/AI — pixel art 8x8) -->
    <g transform="translate(16, 22)" shape-rendering="crispEdges">
      <!-- Brain pixel map -->
      <rect x="4"  y="0"  width="4" height="4" fill="#8b5cf6"/>
      <rect x="16" y="0"  width="4" height="4" fill="#8b5cf6"/>
      <rect x="0"  y="4"  width="4" height="4" fill="#8b5cf6"/>
      <rect x="4"  y="4"  width="4" height="4" fill="#8b5cf6"/>
      <rect x="8"  y="4"  width="4" height="4" fill="#8b5cf6"/>
      <rect x="12" y="4"  width="4" height="4" fill="#8b5cf6"/>
      <rect x="16" y="4"  width="4" height="4" fill="#8b5cf6"/>
      <rect x="20" y="4"  width="4" height="4" fill="#8b5cf6"/>
      <rect x="0"  y="8"  width="4" height="4" fill="#8b5cf6"/>
      <rect x="8"  y="8"  width="4" height="4" fill="#8b5cf6"/>
      <rect x="16" y="8"  width="4" height="4" fill="#8b5cf6"/>
      <rect x="0"  y="12" width="4" height="4" fill="#8b5cf6"/>
      <rect x="4"  y="12" width="4" height="4" fill="#8b5cf6"/>
      <rect x="8"  y="12" width="4" height="4" fill="#8b5cf6"/>
      <rect x="12" y="12" width="4" height="4" fill="#8b5cf6"/>
      <rect x="16" y="12" width="4" height="4" fill="#8b5cf6"/>
      <rect x="20" y="12" width="4" height="4" fill="#8b5cf6"/>
      <rect x="4"  y="16" width="4" height="4" fill="#8b5cf6"/>
      <rect x="16" y="16" width="4" height="4" fill="#8b5cf6"/>
      <rect x="8"  y="20" width="8" height="4" fill="#8b5cf6"/>
    </g>

    <!-- LLM label -->
    <text x="190" y="35" text-anchor="middle" font-family="'Courier New', monospace" font-size="12" fill="#8b5cf6" letter-spacing="3" font-weight="bold">LLM ENGINE</text>
    <text x="190" y="52" text-anchor="middle" font-family="'Courier New', monospace" font-size="9" fill="#94a3b8" letter-spacing="1">Prompt: user query + schema context + instructions</text>
    <!-- Generated SQL preview -->
    <rect x="10" y="60" width="360" height="28" fill="#030712" stroke="#8b5cf6" stroke-opacity="0.3" stroke-width="0.5" shape-rendering="crispEdges"/>
    <text x="20" y="74" font-family="'Courier New', monospace" font-size="8" fill="#4ade80" letter-spacing="1">SELECT p.name, SUM(o.revenue) AS total FROM products p</text>
    <text x="20" y="84" font-family="'Courier New', monospace" font-size="8" fill="#4ade80" letter-spacing="1">JOIN orders o ON p.id = o.product_id GROUP BY p.name LIMIT 10</text>

    <circle cx="368" cy="12" r="3" fill="#4ade80">
      <animate attributeName="opacity" values="1;0.3;1" dur="2s" repeatCount="indefinite"/>
    </circle>
    <rect x="0" y="90" width="60" height="15" fill="#8b5cf6" fill-opacity="0.15" shape-rendering="crispEdges"/>
    <text x="30" y="101" text-anchor="middle" font-family="'Courier New', monospace" font-size="8" fill="#8b5cf6" letter-spacing="1">STEP 3</text>

    <!-- Decorative node dots on border -->
    <circle cx="190" cy="0" r="3" fill="#8b5cf6" opacity="0.6"/>
    <circle cx="190" cy="105" r="3" fill="#8b5cf6" opacity="0.6"/>
  </g>

  <!-- Arrow 3→4 -->
  <line x1="480" y1="510" x2="480" y2="540" stroke="#06b6d4" stroke-width="1.5" stroke-dasharray="4 3" shape-rendering="crispEdges">
    <animate attributeName="stroke-dashoffset" values="0;-14" dur="1s" repeatCount="indefinite"/>
  </line>
  <circle r="3" fill="#06b6d4" filter="url(#glow-sm)">
    <animateMotion path="M 480,510 L 480,540" dur="1.2s" repeatCount="indefinite"/>
  </circle>
  <polygon points="480,545 474,533 486,533" fill="#06b6d4" shape-rendering="crispEdges"/>

  <!-- ============================================================ -->
  <!-- STEP 4: EXECUTE QUERY -->
  <!-- ============================================================ -->
  <g transform="translate(310, 550)">
    <rect width="340" height="90" fill="#060c18" stroke="#06b6d4" stroke-width="1" shape-rendering="crispEdges"/>
    <rect x="0" y="0" width="4" height="4" fill="#06b6d4" shape-rendering="crispEdges"/>
    <rect x="336" y="0" width="4" height="4" fill="#06b6d4" shape-rendering="crispEdges"/>
    <rect x="0" y="86" width="4" height="4" fill="#06b6d4" shape-rendering="crispEdges"/>
    <rect x="336" y="86" width="4" height="4" fill="#06b6d4" shape-rendering="crispEdges"/>
    <rect width="340" height="90" fill="url(#scanlines)" opacity="0.04" shape-rendering="crispEdges"/>

    <!-- Play/Run icon -->
    <g transform="translate(12, 16)" shape-rendering="crispEdges">
      <rect x="0"  y="4"  width="4" height="4" fill="#06b6d4"/>
      <rect x="0"  y="8"  width="4" height="4" fill="#06b6d4"/>
      <rect x="0"  y="12" width="4" height="4" fill="#06b6d4"/>
      <rect x="0"  y="16" width="4" height="4" fill="#06b6d4"/>
      <rect x="4"  y="8"  width="4" height="4" fill="#06b6d4"/>
      <rect x="4"  y="12" width="4" height="4" fill="#06b6d4"/>
      <rect x="8"  y="10" width="4" height="4" fill="#06b6d4"/>
    </g>

    <text x="170" y="35" text-anchor="middle" font-family="'Courier New', monospace" font-size="11" fill="#06b6d4" letter-spacing="2" font-weight="bold">EXECUTE QUERY</text>
    <text x="170" y="52" text-anchor="middle" font-family="'Courier New', monospace" font-size="8" fill="#94a3b8" letter-spacing="1">Query Engine (Trino / DuckDB / native adapter)</text>
    <text x="170" y="65" text-anchor="middle" font-family="'Courier New', monospace" font-size="8" fill="#94a3b8" letter-spacing="1">Runs generated SQL against target database</text>
    <circle cx="328" cy="12" r="3" fill="#f59e0b">
      <animate attributeName="opacity" values="1;0.3;1" dur="1.5s" repeatCount="indefinite"/>
    </circle>
    <rect x="0" y="74" width="56" height="16" fill="#06b6d4" fill-opacity="0.15" shape-rendering="crispEdges"/>
    <text x="28" y="85" text-anchor="middle" font-family="'Courier New', monospace" font-size="8" fill="#06b6d4" letter-spacing="1">STEP 4</text>
  </g>

  <!-- Arrow 4 → Retry (right branch) and arrow 4 → Step 5 (success straight down) -->
  <!-- Success path straight down -->
  <line x1="480" y1="640" x2="480" y2="675" stroke="#4ade80" stroke-width="1.5" stroke-dasharray="4 3" shape-rendering="crispEdges">
    <animate attributeName="stroke-dashoffset" values="0;-14" dur="1s" repeatCount="indefinite"/>
  </line>
  <circle r="3" fill="#4ade80" filter="url(#glow-sm)">
    <animateMotion path="M 480,640 L 480,675" dur="1.2s" repeatCount="indefinite"/>
  </circle>

  <!-- Dotted "failure" path to retry -->
  <path d="M 650,595 C 750,595 750,640 750,660" fill="none" stroke="#f97316" stroke-width="1.2" stroke-dasharray="3 4" stroke-opacity="0.7" shape-rendering="crispEdges">
    <animate attributeName="stroke-dashoffset" values="0;-14" dur="1.2s" repeatCount="indefinite"/>
  </path>
  <text x="756" y="630" font-family="'Courier New', monospace" font-size="8" fill="#f97316">FAIL</text>

  <!-- ============================================================ -->
  <!-- STEP 4b: RETRY / SELF-HEAL (right side) -->
  <!-- ============================================================ -->
  <g transform="translate(658, 660)">
    <rect width="200" height="95" fill="#060c18" stroke="#f97316" stroke-width="1" shape-rendering="crispEdges"/>
    <rect x="0" y="0" width="4" height="4" fill="#f97316" shape-rendering="crispEdges"/>
    <rect x="196" y="0" width="4" height="4" fill="#f97316" shape-rendering="crispEdges"/>
    <rect x="0" y="91" width="4" height="4" fill="#f97316" shape-rendering="crispEdges"/>
    <rect x="196" y="91" width="4" height="4" fill="#f97316" shape-rendering="crispEdges"/>
    <rect width="200" height="95" fill="url(#scanlines)" opacity="0.04" shape-rendering="crispEdges"/>

    <!-- Retry/refresh icon -->
    <g transform="translate(8, 14)" shape-rendering="crispEdges">
      <rect x="4"  y="0"  width="12" height="4" fill="#f97316"/>
      <rect x="16" y="4"  width="4"  height="8" fill="#f97316"/>
      <rect x="0"  y="4"  width="4"  height="4" fill="#f97316"/>
      <rect x="4"  y="16" width="12" height="4" fill="#f97316"/>
      <rect x="0"  y="8"  width="4"  height="8" fill="#f97316"/>
      <!-- arrow tip -->
      <rect x="12" y="16" width="4"  height="4" fill="#f59e0b"/>
      <rect x="16" y="12" width="4"  height="4" fill="#f59e0b"/>
    </g>

    <text x="100" y="38" text-anchor="middle" font-family="'Courier New', monospace" font-size="10" fill="#f97316" letter-spacing="2" font-weight="bold">RETRY / HEAL</text>
    <text x="100" y="54" text-anchor="middle" font-family="'Courier New', monospace" font-size="8" fill="#94a3b8" letter-spacing="1">Error analysis by LLM</text>
    <text x="100" y="66" text-anchor="middle" font-family="'Courier New', monospace" font-size="8" fill="#94a3b8" letter-spacing="1">Regenerate corrected SQL</text>
    <text x="100" y="78" text-anchor="middle" font-family="'Courier New', monospace" font-size="8" fill="#f59e0b" letter-spacing="1">Max 3 attempts</text>

    <rect x="0" y="80" width="60" height="15" fill="#f97316" fill-opacity="0.15" shape-rendering="crispEdges"/>
    <text x="30" y="91" text-anchor="middle" font-family="'Courier New', monospace" font-size="8" fill="#f97316" letter-spacing="1">STEP 4b</text>
  </g>

  <!-- Retry loopback arrow to Execute Query -->
  <path d="M 658,707 C 610,707 610,595 650,595" fill="none" stroke="#f97316" stroke-width="1" stroke-dasharray="3 4" stroke-opacity="0.6" shape-rendering="crispEdges">
    <animate attributeName="stroke-dashoffset" values="0;14" dur="1.4s" repeatCount="indefinite"/>
  </path>
  <text x="598" y="655" font-family="'Courier New', monospace" font-size="8" fill="#f97316">RETRY</text>

  <!-- ============================================================ -->
  <!-- STEP 5: RESULTS PROCESSING -->
  <!-- ============================================================ -->
  <!-- Success label -->
  <text x="500" y="672" font-family="'Courier New', monospace" font-size="8" fill="#4ade80">SUCCESS</text>

  <polygon points="480,680 474,668 486,668" fill="#4ade80" shape-rendering="crispEdges"/>

  <g transform="translate(310, 685)">
    <rect width="340" height="95" fill="#060c18" stroke="#4ade80" stroke-width="1" shape-rendering="crispEdges"/>
    <rect x="0" y="0" width="4" height="4" fill="#4ade80" shape-rendering="crispEdges"/>
    <rect x="336" y="0" width="4" height="4" fill="#4ade80" shape-rendering="crispEdges"/>
    <rect x="0" y="91" width="4" height="4" fill="#4ade80" shape-rendering="crispEdges"/>
    <rect x="336" y="91" width="4" height="4" fill="#4ade80" shape-rendering="crispEdges"/>
    <rect width="340" height="95" fill="url(#scanlines)" opacity="0.04" shape-rendering="crispEdges"/>

    <!-- Table result rows icon -->
    <g transform="translate(10, 10)" shape-rendering="crispEdges">
      <rect x="0" y="0"  width="24" height="4"  fill="#4ade80"/>
      <rect x="0" y="6"  width="24" height="3"  fill="#4ade80" opacity="0.6"/>
      <rect x="0" y="11" width="24" height="3"  fill="#4ade80" opacity="0.4"/>
      <rect x="0" y="16" width="24" height="3"  fill="#4ade80" opacity="0.3"/>
    </g>

    <text x="170" y="30" text-anchor="middle" font-family="'Courier New', monospace" font-size="11" fill="#4ade80" letter-spacing="2" font-weight="bold">RESULTS PROCESSING</text>
    <text x="170" y="46" text-anchor="middle" font-family="'Courier New', monospace" font-size="8" fill="#94a3b8" letter-spacing="1">Query results returned from DB</text>
    <text x="170" y="59" text-anchor="middle" font-family="'Courier New', monospace" font-size="8" fill="#94a3b8" letter-spacing="1">Format: table / chart / CSV / JSON / markdown</text>
    <text x="170" y="72" text-anchor="middle" font-family="'Courier New', monospace" font-size="8" fill="#94a3b8" letter-spacing="1">Validates row count and schema match</text>
    <circle cx="328" cy="12" r="3" fill="#4ade80">
      <animate attributeName="opacity" values="1;0.3;1" dur="2s" repeatCount="indefinite"/>
    </circle>
    <rect x="0" y="79" width="56" height="16" fill="#4ade80" fill-opacity="0.12" shape-rendering="crispEdges"/>
    <text x="28" y="90" text-anchor="middle" font-family="'Courier New', monospace" font-size="8" fill="#4ade80" letter-spacing="1">STEP 5</text>
  </g>

  <!-- Arrow 5→6 -->
  <line x1="480" y1="780" x2="480" y2="812" stroke="#06b6d4" stroke-width="1.5" stroke-dasharray="4 3" shape-rendering="crispEdges">
    <animate attributeName="stroke-dashoffset" values="0;-14" dur="1s" repeatCount="indefinite"/>
  </line>
  <circle r="3" fill="#06b6d4" filter="url(#glow-sm)">
    <animateMotion path="M 480,780 L 480,812" dur="1.2s" repeatCount="indefinite"/>
  </circle>
  <polygon points="480,817 474,805 486,805" fill="#06b6d4" shape-rendering="crispEdges"/>

  <!-- ============================================================ -->
  <!-- STEP 6: AI SUMMARY GENERATION -->
  <!-- ============================================================ -->
  <g transform="translate(290, 822)">
    <rect width="380" height="95" fill="#060c18" stroke="#8b5cf6" stroke-width="1.5" shape-rendering="crispEdges"/>
    <rect x="0" y="0" width="5" height="5" fill="#8b5cf6" shape-rendering="crispEdges"/>
    <rect x="375" y="0" width="5" height="5" fill="#8b5cf6" shape-rendering="crispEdges"/>
    <rect x="0" y="90" width="5" height="5" fill="#8b5cf6" shape-rendering="crispEdges"/>
    <rect x="375" y="90" width="5" height="5" fill="#8b5cf6" shape-rendering="crispEdges"/>
    <rect width="380" height="95" fill="url(#scanlines)" opacity="0.04" shape-rendering="crispEdges"/>
    <rect x="0" y="0" width="380" height="3" fill="#8b5cf6" opacity="0.10">
      <animate attributeName="y" values="-3;98;-3" dur="3.5s" repeatCount="indefinite"/>
    </rect>

    <!-- Paragraph/text icon -->
    <g transform="translate(12, 18)" shape-rendering="crispEdges">
      <rect x="0" y="0"  width="24" height="3" fill="#8b5cf6"/>
      <rect x="0" y="5"  width="20" height="3" fill="#8b5cf6" opacity="0.7"/>
      <rect x="0" y="10" width="24" height="3" fill="#8b5cf6" opacity="0.5"/>
      <rect x="0" y="15" width="16" height="3" fill="#8b5cf6" opacity="0.3"/>
    </g>

    <text x="190" y="32" text-anchor="middle" font-family="'Courier New', monospace" font-size="11" fill="#8b5cf6" letter-spacing="2" font-weight="bold">AI SUMMARY</text>
    <text x="190" y="48" text-anchor="middle" font-family="'Courier New', monospace" font-size="8" fill="#94a3b8" letter-spacing="1">LLM generates human-readable insight from results</text>
    <text x="190" y="61" text-anchor="middle" font-family="'Courier New', monospace" font-size="8" fill="#94a3b8" letter-spacing="1">"Top product is Widget A with $2.4M revenue in Q4"</text>
    <text x="190" y="74" text-anchor="middle" font-family="'Courier New', monospace" font-size="8" fill="#94a3b8" letter-spacing="1">Contextualizes numbers, highlights anomalies</text>
    <circle cx="368" cy="12" r="3" fill="#4ade80">
      <animate attributeName="opacity" values="1;0.3;1" dur="2s" repeatCount="indefinite"/>
    </circle>
    <rect x="0" y="79" width="56" height="16" fill="#8b5cf6" fill-opacity="0.15" shape-rendering="crispEdges"/>
    <text x="28" y="90" text-anchor="middle" font-family="'Courier New', monospace" font-size="8" fill="#8b5cf6" letter-spacing="1">STEP 6</text>
  </g>

  <!-- Arrow 6→7 -->
  <line x1="480" y1="917" x2="480" y2="950" stroke="#06b6d4" stroke-width="1.5" stroke-dasharray="4 3" shape-rendering="crispEdges">
    <animate attributeName="stroke-dashoffset" values="0;-14" dur="1s" repeatCount="indefinite"/>
  </line>
  <circle r="3" fill="#06b6d4" filter="url(#glow-sm)">
    <animateMotion path="M 480,917 L 480,950" dur="1.2s" repeatCount="indefinite"/>
  </circle>
  <polygon points="480,955 474,943 486,943" fill="#06b6d4" shape-rendering="crispEdges"/>

  <!-- ============================================================ -->
  <!-- STEP 7: OUTPUT TO USER -->
  <!-- ============================================================ -->
  <g transform="translate(300, 960)">
    <rect width="360" height="100" fill="#060c18" stroke="#06b6d4" stroke-width="1.5" shape-rendering="crispEdges"/>
    <rect x="0" y="0" width="5" height="5" fill="#06b6d4" shape-rendering="crispEdges"/>
    <rect x="355" y="0" width="5" height="5" fill="#06b6d4" shape-rendering="crispEdges"/>
    <rect x="0" y="95" width="5" height="5" fill="#06b6d4" shape-rendering="crispEdges"/>
    <rect x="355" y="95" width="5" height="5" fill="#06b6d4" shape-rendering="crispEdges"/>
    <rect width="360" height="100" fill="url(#scanlines)" opacity="0.04" shape-rendering="crispEdges"/>

    <!-- Bar chart icon -->
    <g transform="translate(12, 16)" shape-rendering="crispEdges">
      <rect x="0"  y="16" width="5" height="8"  fill="#06b6d4"/>
      <rect x="7"  y="8"  width="5" height="16" fill="#06b6d4"/>
      <rect x="14" y="4"  width="5" height="20" fill="#06b6d4"/>
      <rect x="21" y="10" width="5" height="14" fill="#06b6d4"/>
    </g>

    <text x="180" y="32" text-anchor="middle" font-family="'Courier New', monospace" font-size="12" fill="#06b6d4" letter-spacing="3" font-weight="bold">OUTPUT</text>

    <!-- Multi-format output pills -->
    <rect x="20"  y="42" width="44" height="14" fill="#06b6d4" fill-opacity="0.15" stroke="#06b6d4" stroke-width="0.5" shape-rendering="crispEdges"/>
    <text x="42"  y="52" text-anchor="middle" font-family="'Courier New', monospace" font-size="8" fill="#06b6d4">TABLE</text>

    <rect x="72"  y="42" width="44" height="14" fill="#8b5cf6" fill-opacity="0.15" stroke="#8b5cf6" stroke-width="0.5" shape-rendering="crispEdges"/>
    <text x="94"  y="52" text-anchor="middle" font-family="'Courier New', monospace" font-size="8" fill="#8b5cf6">CHART</text>

    <rect x="124" y="42" width="36" height="14" fill="#4ade80" fill-opacity="0.15" stroke="#4ade80" stroke-width="0.5" shape-rendering="crispEdges"/>
    <text x="142" y="52" text-anchor="middle" font-family="'Courier New', monospace" font-size="8" fill="#4ade80">JSON</text>

    <rect x="168" y="42" width="36" height="14" fill="#f59e0b" fill-opacity="0.15" stroke="#f59e0b" stroke-width="0.5" shape-rendering="crispEdges"/>
    <text x="186" y="52" text-anchor="middle" font-family="'Courier New', monospace" font-size="8" fill="#f59e0b">CSV</text>

    <rect x="212" y="42" width="60" height="14" fill="#60a5fa" fill-opacity="0.15" stroke="#60a5fa" stroke-width="0.5" shape-rendering="crispEdges"/>
    <text x="242" y="52" text-anchor="middle" font-family="'Courier New', monospace" font-size="8" fill="#60a5fa">MARKDOWN</text>

    <rect x="280" y="42" width="60" height="14" fill="#e879f9" fill-opacity="0.15" stroke="#e879f9" stroke-width="0.5" shape-rendering="crispEdges"/>
    <text x="310" y="52" text-anchor="middle" font-family="'Courier New', monospace" font-size="8" fill="#e879f9">IFRAME</text>

    <text x="180" y="74" text-anchor="middle" font-family="'Courier New', monospace" font-size="8" fill="#94a3b8" letter-spacing="1">Share · Embed · Export · Analyze</text>

    <!-- Animated bar chart bars -->
    <rect x="310" y="55" width="6" height="20" fill="#06b6d4" opacity="0.5" shape-rendering="crispEdges">
      <animate attributeName="height" values="20;30;15;25;20" dur="3s" repeatCount="indefinite"/>
      <animate attributeName="y" values="55;45;65;50;55" dur="3s" repeatCount="indefinite"/>
    </rect>
    <rect x="320" y="50" width="6" height="25" fill="#8b5cf6" opacity="0.5" shape-rendering="crispEdges">
      <animate attributeName="height" values="25;15;30;20;25" dur="3.5s" repeatCount="indefinite"/>
      <animate attributeName="y" values="50;60;45;55;50" dur="3.5s" repeatCount="indefinite"/>
    </rect>
    <rect x="330" y="60" width="6" height="15" fill="#4ade80" opacity="0.5" shape-rendering="crispEdges">
      <animate attributeName="height" values="15;25;10;20;15" dur="2.8s" repeatCount="indefinite"/>
      <animate attributeName="y" values="60;50;65;55;60" dur="2.8s" repeatCount="indefinite"/>
    </rect>

    <circle cx="348" cy="12" r="3" fill="#4ade80">
      <animate attributeName="opacity" values="1;0.3;1" dur="2s" repeatCount="indefinite"/>
    </circle>
    <rect x="0" y="83" width="56" height="17" fill="#06b6d4" fill-opacity="0.15" shape-rendering="crispEdges"/>
    <text x="28" y="95" text-anchor="middle" font-family="'Courier New', monospace" font-size="8" fill="#06b6d4" letter-spacing="1">STEP 7</text>
  </g>

  <!-- Outer glow border for full canvas -->
  <rect x="1" y="1" width="958" height="1098" fill="none" stroke="#06b6d4" stroke-width="1" stroke-opacity="0.15" shape-rendering="crispEdges"/>
  <rect x="4" y="4" width="952" height="1092" fill="none" stroke="#06b6d4" stroke-width="0.5" stroke-opacity="0.07" shape-rendering="crispEdges"/>

  <!-- Footer watermark -->
  <text x="480" y="1086" text-anchor="middle" font-family="'Courier New', monospace" font-size="9" fill="#94a3b8" fill-opacity="0.4" letter-spacing="3">OMNIQUERY.AI — NL2SQL PIPELINE</text>

</svg>
